<svg version="1.2" xmlns="http://www.w3.org/2000/svg" viewBox="0 0 285 45" width="285" height="45">
	<title>vista print 01</title>
	<style>
		tspan { white-space:pre } 
		.s0 { fill: none;stroke: #234334;stroke-linecap: round;stroke-linejoin: round;stroke-width: 1.8 } 
	</style>
	<g id="Dossier 1">
		<path id="&lt;Path&gt;" class="s0" d="m20.1 38.5q-3.2 0-5.9-0.9-2.8-0.9-4.7-2.7-2-1.8-3-4.4-0.9-2.6-0.9-5.5 0-3.1 1.1-5.9 1.2-2.8 3.4-4.7 2.2-1.9 5-2.8 2.9-0.9 6-0.9 1.8 0 3.7 0.3 1.9 0.2 4.5 1-0.1-0.9-0.2-1.8-1.6-0.3-2.5-0.5-1-0.1-2.4-0.2-1.5-0.1-2.8-0.1-3.7 0-7.1 1-3.3 1-5.7 3.1-2.3 2.1-3.6 5.2-1.2 3.2-1.2 6.6 0 3 1 5.8 1.1 2.7 3.4 4.7 2.2 2 5.3 3 3.2 1 6.7 1 1.7 0 3.8-0.2 2.2-0.2 4.6-0.7 0.2-1 0.4-1.8-4.9 1.4-8.9 1.4z"/>
		<path id="&lt;Compound Path&gt;" fill-rule="evenodd" class="s0" d="m43.5 14.8q0.3-1.1 0.7-2.2 0.4-1.1 1.4-3.9 0.6 0.1 1.4 0.1 0.8 0 1.4-0.1-0.6 0.9-2 2.9-1.3 2.1-1.9 3.2-0.2-0.1-0.5-0.1-0.3 0-0.5 0.1zm8.9 22.4q-0.2 0.9-0.3 1.7-2 0.5-3.6 0.7-1.5 0.2-3.2 0.2-2.9 0-5.1-0.7-2.2-0.7-3.8-2.3-1.6-1.6-2.3-3.7-0.6-2-0.6-4.3 0-3 1.1-5.6 1.2-2.7 3.8-4.4 2.6-1.7 6.6-1.7 2.6 0 4.8 0.9 2.2 0.9 3.4 2.9 1.2 2 1.2 4.8 0 0.6 0 1h-19q-0.1 1.5-0.1 2.2 0 2 0.6 3.9 0.7 2 2.1 3.3 1.3 1.3 3.2 1.9 1.9 0.6 4 0.6 3.3 0 7.2-1.4zm-16.8-11.6h17.1q0-1.5-0.2-2.3-0.2-0.8-0.6-1.7-0.5-0.8-1.1-1.4-0.7-0.6-1.5-1.1-0.9-0.4-1.9-0.6-1.1-0.2-2.2-0.2-1.3 0-2.5 0.2-1.3 0.3-2.3 0.8-1 0.4-1.9 1.1-0.8 0.7-1.4 1.5-0.6 0.9-0.9 1.6-0.3 0.8-0.6 2.1z"/>
		<path id="&lt;Path&gt;" class="s0" d="m72.3 38.4q-1.3 0.2-2.5 0.2-2.1 0-4-0.6-1.9-0.6-3.3-1.8-1.3-1.2-1.9-3-0.6-1.9-0.6-4 0-2 0.6-4 0.5-2 1.8-3.6 1.3-1.6 3.2-2.4 2-0.9 4.5-0.9 1.2 0 2.6 0.2 1.4 0.2 3.9 0.9-0.2-0.8-0.2-1.5-2.9-0.8-6.1-0.8-4.5 0-7.1 1.6-2.6 1.7-3.8 4.5-1.2 2.9-1.2 6 0 2.4 0.8 4.5 0.7 2.1 2.3 3.5 1.6 1.4 3.7 2 2.2 0.6 4.7 0.6 2.6 0 5.7-0.5 0.1-0.8 0.3-1.7-2.1 0.6-3.4 0.8z"/>
		<path id="&lt;Compound Path&gt;" class="s0" d="m82.7 39.4q0.3 0 0.9 0 0-3.6 0.3-10.7 0.4-7.1 0.7-11.2-0.6 0-1 0-0.3 0-0.9 0 0 2.5-0.4 10.6-0.3 8-0.6 11.3 0.6 0 1 0zm1.1-27.5q0.6 0 1.2 0.1l0.1-2.2q-0.6 0.1-1.2 0.1-0.6 0-1.2-0.1l-0.1 2.2q0.6-0.1 1.2-0.1z"/>
		<path id="&lt;Path&gt;" class="s0" d="m91.7 39.4q0.3 0 1 0l0.7-19 0.6-10.6q-0.7 0.1-1 0.1-0.4 0-1-0.1-0.2 11.5-1.3 29.6 0.6 0 1 0z"/>
		<path id="&lt;Compound Path&gt;" fill-rule="evenodd" class="s0" d="m118 37.2q-0.2 0.9-0.3 1.7-2 0.5-3.6 0.7-1.5 0.2-3.2 0.2-2.9 0-5.1-0.7-2.2-0.7-3.8-2.3-1.6-1.6-2.3-3.7-0.6-2-0.6-4.3 0-3 1.1-5.6 1.2-2.7 3.8-4.4 2.7-1.7 6.6-1.7 2.7 0 4.8 0.9 2.2 0.9 3.4 2.9 1.2 2 1.2 4.8 0 0.6 0 1h-19q-0.1 1.5-0.1 2.2 0 2 0.6 3.9 0.7 2 2.1 3.3 1.3 1.3 3.2 1.9 1.9 0.6 4 0.6 3.3 0 7.2-1.4zm-16.8-11.6h17.1q0-1.5-0.2-2.3-0.2-0.8-0.6-1.7-0.5-0.8-1.1-1.4-0.7-0.6-1.5-1.1-0.9-0.4-1.9-0.6-1.1-0.2-2.2-0.2-1.3 0-2.5 0.2-1.3 0.3-2.3 0.8-1 0.4-1.9 1.1-0.8 0.7-1.4 1.5-0.6 0.9-0.9 1.6-0.3 0.8-0.6 2.1z"/>
		<path id="&lt;Path&gt;" class="s0" d="m137.8 39.4q0.5 0 1.1 0 0-2 0.1-3 0-1.1 0.1-2.1l1.3-15.9q0.2-3.2 0.3-4.3l0.3-2.5 0.7 1.7 10.5 26.1q0.6 0 1.3 0 0.7 0 1.3 0l9.7-19.9 4.1-8.1v2.9q0 2.6-0.1 6.1l-0.4 19q0.6 0 1.1 0 0.5 0 1.1 0-0.1-3.9-0.1-10.7 0-2.1 0.1-6.3l0.2-12.6q-0.8 0.1-1.6 0.1-0.7 0-1.5-0.1-0.8 1.7-1.2 2.6l-12.7 25.3-1.7-4.2-6.3-15.9q-1.5-3.6-1.9-4.8l-1.1-3q-0.8 0.1-1.5 0.1-0.7 0-1.6-0.1l-0.7 9.7-1.4 15.9-0.5 4q0.6 0 1 0z"/>
		<path id="&lt;Compound Path&gt;" fill-rule="evenodd" class="s0" d="m188.5 17.1q2.2 0 4.3 0.5 2.1 0.6 3.7 2 1.6 1.3 2.4 3.5 0.9 2.2 0.9 4.6 0 2.7-0.9 5.1-0.9 2.4-2.5 4-1.7 1.7-3.9 2.4-2.2 0.6-4.6 0.6-1.7 0-3.4-0.3-1.7-0.4-3.1-1.2-1.5-0.9-2.6-2.2-1.1-1.4-1.6-3.2-0.6-1.8-0.6-3.8 0-3.5 1.4-6.4 1.5-2.9 4.3-4.3 2.9-1.3 6.2-1.3zm0 1.2q-2.9 0-5.3 1.2-2.5 1.3-3.6 3.9-1.2 2.5-1.2 5.6 0 2.2 0.7 4.1 0.6 1.9 2.1 3.2 1.4 1.3 3.1 1.8 1.7 0.5 3.6 0.5 2.1 0 4-0.6 1.9-0.6 3.3-2.1 1.4-1.5 2.1-3.6 0.7-2.2 0.7-4.6 0-2.2-0.7-4.1-0.6-2-2-3.2-1.4-1.2-3.2-1.6-1.8-0.5-3.6-0.5z"/>
		<path id="&lt;Path&gt;" class="s0" d="m205.9 39.4q0.3 0 0.9 0 0-2.3 0.1-7.1 0.1-3.5 0.3-6.3 0.2-1.8 0.7-3 0.4-1.1 1.1-2 0.8-1 1.6-1.5 0.8-0.5 1.7-0.8 1-0.3 2.1-0.3 1.2 0 2.8 0.4-0.1-0.8-0.1-1.5-1-0.2-2-0.2-1.3 0-2.6 0.2-1.2 0.3-2.1 0.8-0.9 0.5-1.6 1.3-0.7 0.7-1.6 2.2l0.3-4.1q-0.5 0-0.9 0-0.4 0-0.9 0v2q0 3-0.3 9.2-0.2 6.1-0.5 10.7 0.6 0 1 0z"/>
		<path id="&lt;Path&gt;" class="s0" d="m227.7 38.5q-0.7 0.1-1.3 0.1-1 0-1.8-0.4-0.9-0.3-1.3-1.1-0.5-0.9-0.5-2.7v-0.9l0.8-14.8h7.2q0-0.6 0.1-1.2h-7.2q0-0.8 0.2-4.3-0.7 0.2-1.6 0.3-0.1 2.7-0.2 4h-2.9q-0.1 0.6-0.2 1.2h3l-0.8 14.3q-0.1 1.3-0.1 1.6 0 0.4 0 0.6 0 1 0.2 1.8 0.2 0.9 0.9 1.6 0.7 0.7 1.8 1 1 0.2 2.4 0.2 1.6 0 3.6-0.4 0.1-0.7 0.3-1.4-1.8 0.4-2.6 0.5z"/>
		<path id="&lt;Compound Path&gt;" class="s0" d="m235.2 39.4q0.3 0 0.9 0 0-3.6 0.4-10.7 0.3-7.1 0.6-11.2-0.6 0-1 0-0.3 0-0.9 0 0 2.5-0.4 10.6-0.3 8-0.6 11.3 0.6 0 1 0zm1.1-27.5q0.6 0 1.2 0.1l0.1-2.2q-0.6 0.1-1.2 0.1-0.6 0-1.2-0.1l-0.1 2.2q0.6-0.1 1.2-0.1z"/>
		<path id="&lt;Compound Path&gt;" fill-rule="evenodd" class="s0" d="m261.3 37.2q-0.2 0.9-0.3 1.7-2 0.5-3.5 0.7-1.6 0.2-3.3 0.2-2.9 0-5.1-0.7-2.2-0.7-3.8-2.3-1.6-1.6-2.2-3.7-0.7-2-0.7-4.3 0-3 1.1-5.6 1.2-2.7 3.8-4.4 2.7-1.7 6.6-1.7 2.7 0 4.9 0.9 2.1 0.9 3.4 2.9 1.2 2 1.2 4.8 0 0.6-0.1 1h-19q-0.1 1.5-0.1 2.2 0 2 0.7 3.9 0.6 2 2 3.3 1.4 1.3 3.3 1.9 1.9 0.6 4 0.6 3.2 0 7.1-1.4zm-16.8-11.6h17.1q0-1.5-0.2-2.3-0.1-0.8-0.6-1.7-0.5-0.8-1.1-1.4-0.6-0.6-1.5-1.1-0.8-0.4-1.9-0.6-1.1-0.2-2.2-0.2-1.3 0-2.5 0.2-1.2 0.3-2.2 0.8-1 0.4-1.9 1.1-0.9 0.7-1.5 1.5-0.5 0.9-0.8 1.6-0.3 0.8-0.7 2.1z"/>
		<path id="&lt;Path&gt;" class="s0" d="m268.8 39.4q0.3 0 0.9 0 0-2.3 0.1-7.1 0.1-3.5 0.4-6.3 0.1-1.8 0.6-3 0.4-1.1 1.2-2 0.7-1 1.5-1.5 0.8-0.5 1.8-0.8 0.9-0.3 2-0.3 1.2 0 2.8 0.4-0.1-0.8-0.1-1.5-1-0.2-2-0.2-1.3 0-2.6 0.2-1.2 0.3-2.1 0.8-0.9 0.5-1.6 1.3-0.7 0.7-1.5 2.2l0.2-4.1q-0.5 0-0.9 0-0.4 0-0.9 0v2q0 3-0.2 9.2-0.3 6.1-0.6 10.7 0.6 0 1 0z"/>
	</g>
</svg>