<svg version="1.2" xmlns="http://www.w3.org/2000/svg" viewBox="0 0 223 63" width="223" height="63">
	<title>vista print 01</title>
	<style>
		tspan { white-space:pre } 
		.s0 { fill: #c02636 } 
	</style>
	<g id="&lt;Group&gt;">
		<path id="&lt;Compound Path&gt;" class="s0" d="m9.9 54.7q-1.9-0.5-3-1.5-1-1-1.4-2.4-0.5-1.4-0.4-2.9 0.1-1.6 0.6-3.2 0.8-2.7 2.7-5.9 1.9-3.2 4.6-6.4 2.8-3.2 6.3-6.2 3.4-3.1 7.5-5.6 5.1-3.1 10.2-5.3 5.2-2.3 9.5-3.2 4.3-1 7.4-0.6 3.1 0.5 4.4 2.8 1 2.1 0.1 4.4-0.9 2.3-3.1 4.6-2.2 2.4-5.3 4.6-3.1 2.3-6.5 4.1-3.1 1.8-6.5 3.4-3.4 1.5-6.5 2.3-3 0.8-5.2 0.7-2.2-0.1-2.7-1.6-0.3-0.9 0.2-2.2 0.6-1.2 1.7-2.5 1.2-1.4 2.7-2.6 1.6-1.3 3.3-2.3 1.7-0.9 3.4-1.5 1.8-0.6 3.3-0.6 0.5 0.3 0.5 0.6 0 0.4-0.5 0.4-2.2-0.1-4.8 1.2-2.5 1.2-4.7 2.9-2.2 1.7-3.4 3.5-1.3 1.7-0.9 2.8 0.4 0.9 2.1 1 1.8 0.1 4.6-0.7 2.7-0.8 6-2.1 3.3-1.4 6.7-3.2 3.8-2.1 6.8-4.4 3-2.3 5.1-4.5 2-2.2 2.7-4.3 0.8-2 0-3.8-0.9-1.6-3.7-2-2.7-0.4-6.7 0.5-4 0.8-9.1 2.9-5.1 2.1-10.6 5.4-3.8 2.4-7 5.1-3.2 2.8-5.8 5.7-2.5 2.9-4.4 5.8-1.8 2.9-2.8 5.4-0.7 1.4-1 3.1-0.3 1.6-0.1 3.1 0.2 1.5 1.2 2.7 0.9 1.1 2.9 1.7 1.4 0.2 3.9-0.3 2.6-0.5 5.8-1.4 3.2-1 6.7-2.4 3.6-1.4 7-2.9 3.4-1.5 6.3-2.9 3-1.5 5-2.7 0.5-0.2 0.7 0 0.2 0.6-0.1 0.7-1.2 0.8-3.8 2.2-2.7 1.3-6.1 2.9-3.4 1.5-7.2 3-3.9 1.6-7.5 2.7-3.6 1.2-6.5 1.8-3 0.6-4.6 0.1z"/>
		<path id="&lt;Compound Path&gt;" fill-rule="evenodd" class="s0" d="m43.7 45.6q-0.9-0.7-0.7-1.7 0.1-1 0.8-1.9 0.7-0.9 1.8-1.6 1-0.7 1.8-1 0.1-0.1 0.4-0.1 0.4 0 0.4 0.2 0.1 0.3-0.2 0.6-0.6 0.5-1.5 1.2-0.9 0.7-1.7 1.3-0.9 1.1-0.6 1.9 0.2 0.7 1.3 0.7 1.1 0 2.4-0.7-0.8-0.7-0.7-1.8 0.1-1.1 0.7-2.1 0.6-1 1.6-1.7 0.9-0.7 1.7-0.7 0.2 0 0.3 0.1 0.2 0 0.4 0.2 0.4 0.6 0.3 1.5-0.2 0.8-0.7 1.7-0.5 0.9-1 1.6-0.6 0.7-0.9 0.9 0.7 0.1 2-0.2 1.2-0.3 2.6-0.8 1.3-0.5 2.6-1.1 1.2-0.5 1.8-1 0.5 0 0.5 0.3 0.2 0.3-0.1 0.6-0.7 0.5-2 1.1-1.3 0.6-2.8 1.1-1.5 0.5-3 0.8-1.5 0.3-2.5 0-1.8 1.3-3.1 1.2-1.3-0.1-1.9-0.6zm7.3-6.5q-0.5-0.1-1.1 0.6-0.7 0.6-1.1 1.4-0.5 0.8-0.6 1.6-0.2 0.8 0.4 1.2 0.6-0.5 1.1-1.3 0.6-0.7 1-1.5 0.4-0.8 0.5-1.3 0.1-0.6-0.2-0.7z"/>
		<path id="&lt;Compound Path&gt;" class="s0" d="m55.5 46.6q-0.8-0.5-0.6-1.5 0.2-1.1 1.1-2 0.8-1 2.1-1.8 1.3-0.7 2.6-0.7 0.9 0 1.6 0.3 0.7 0.4 0.9 0.8 0.1 0.2-0.1 0.4-0.3 0.2-0.5 0-0.4-0.2-0.7-0.4-0.3-0.3-1.2-0.3-0.8 0-1.9 0.6-1 0.6-1.7 1.3-0.8 0.8-1.1 1.5-0.3 0.7 0.1 1 0.7 0.1 1.7-0.4 1.1-0.4 2.3-1.1 1.2-0.7 2.3-1.5 1.1-0.8 1.9-1.4 0.8-0.6 1-0.1 0.3 0.4-0.1 0.7-0.9 0.7-1.3 1.6-0.3 1 0.2 1.2 0.5 0.2 1.7-0.2 1.1-0.5 2.4-1.2 1.2-0.6 2.3-1.3 1.1-0.6 1.4-0.8 0.4-0.2 0.6 0.2 0.3 0.4-0.1 0.6-0.5 0.3-1.6 1-1 0.7-2.3 1.4-1.3 0.6-2.5 1-1.3 0.5-2.1 0.3-0.8-0.3-1-1-0.2-0.7 0.2-1.4-0.8 0.6-1.9 1.3-1.1 0.7-2.2 1.2-1.2 0.5-2.1 0.8-0.9 0.2-1.4-0.1z"/>
		<path id="&lt;Compound Path&gt;" class="s0" d="m69 45.8q-0.2-0.9 0.4-2 0.6-1.1 1.6-1.9 0.3-0.3 1-0.8 0.6-0.4 1.4-0.7 0.7-0.3 1.5-0.5 0.7-0.1 1.3 0.1 0.4 0.3 0.4 0.7-0.1 0.4-0.4 0.8-0.3 0.4-0.8 0.7-0.4 0.4-0.8 0.5-0.4 0.2-0.6-0.1-0.2-0.3 0.2-0.6 0.4-0.2 0.7-0.5 0.3-0.3 0.7-0.7-0.4-0.2-1.5 0.3-1.2 0.5-2 1.2-0.8 0.6-1.4 1.4-0.7 0.8-0.7 1.8 0 0.4 1 0.4 1.1 0.1 1.9-0.1 1.7-0.5 4.3-1.6 2.6-1.1 6.2-3.2 0.2-0.2 0.4-0.1 0.2 0.1 0.3 0.2 0 0.6-0.1 0.6-3.7 2.2-6.4 3.3-2.7 1.2-4.4 1.6-1.2 0.3-2.6 0.3-1.4-0.1-1.6-1.1z"/>
		<path id="&lt;Compound Path&gt;" fill-rule="evenodd" class="s0" d="m90.3 37.7q-0.6 0.4-1.3 0.8-1 0.7-2.7 1.9l-2 3.6q0.6-0.5 1.8-1.2 1.2-0.7 2.6-1.4 1.4-0.7 2.6-1.2 1.3-0.4 2.1-0.4 1.2 0 1.4 1.2 0.1 0.6-0.7 1.6-0.7 0.9-1.3 1.7-0.5 0.7-0.4 1 0.1 0.3 1.9-0.4 0.7-0.3 1.7-0.8 1-0.4 2.1-0.9 1.1-0.5 2.2-1.1 1.1-0.5 1.9-1 0.4-0.2 0.7 0.2 0.2 0.4-0.1 0.6-0.5 0.2-1.4 0.8-1 0.6-2.2 1.2-1.2 0.6-2.5 1.2-1.4 0.6-2.5 0.9-1.1 0.4-1.9 0.4-0.9 0-1.1-0.5-0.2-0.4 0.1-1.1 0.4-0.6 0.9-1.3 0.5-0.6 1-1.3 0.5-0.6 0.6-1.1-0.1-0.5-1.2-0.2-1.2 0.3-2.8 1.1-1.6 0.7-3.4 1.8-1.8 1-3 2.1-0.2 0.4-0.5 0.1-0.4-0.2-0.2-0.5 0.2-0.9 0.6-1.9 0.5-1 1.1-2l-1.7 1q-0.5 0.3-0.7-0.2-0.2-0.1-0.1-0.3 0.1-0.2 0.4-0.4 0.8-0.4 1.5-0.9 0.8-0.5 1.6-1.1 1.3-2 2.8-3.8 1.6-1.9 3.3-3.6 1.3-1.2 2.5-2.1 1.3-0.8 2.3-1.5 1-0.6 1.9-0.9 1-0.2 1.5 0.2 1.1 0.8-0.9 3.3-2.1 2.5-8.5 6.4zm8.9-9.1q-0.2-0.2-0.7 0-0.6 0.2-1.8 1-3.2 1.9-5.6 4.4-2.4 2.5-3.6 4.4l1.8-1.2q1.4-0.9 3.3-2.2 1.8-1.2 3.4-2.5 1.6-1.3 2.6-2.4 0.9-1 0.6-1.5z"/>
		<path id="&lt;Compound Path&gt;" fill-rule="evenodd" class="s0" d="m117.7 47.1q-0.6-0.3-0.7-0.9-0.1-0.5 0.2-1.1 0.2-0.6 0.6-1.2 0.4-0.6 0.9-1 0.8-1.1 2.1-2 1.2-0.9 2.2-0.9 0.4 0 0.9 0.1 0.6 0.2 0.9 0.5 0.5-1.8 1.9-4.1 1.4-2.2 3-4.1 1.6-1.8 3.2-2.8 1.7-0.9 2.8-0.2 0.7 0.8 0.1 2.1-0.5 1.3-1.6 2.8-1.2 1.4-2.6 2.9-1.5 1.6-2.7 2.8-0.8 0.8-1.6 1.5-0.9 0.8-2 1.8v0.1q0 0.6 0.2 0.8 0.3 0.6 1.1 0.7 0.9 0.1 2.2-0.3 1.2-0.3 2.7-1 1.6-0.8 3.1-1.9 0.5-0.2 0.7 0 0.3 0.5-0.2 0.7-1.4 1.1-3.1 2-1.7 0.9-3.3 1.3-1.6 0.4-2.8 0.1-1.2-0.3-1.4-1.8-0.7 0.5-1.6 1.1-0.9 0.7-1.8 1.2-1 0.5-1.9 0.8-0.8 0.3-1.4 0zm6.8-5.2v-0.2h-0.1q-0.2 0-0.2-0.3-0.2-0.4-1.1-0.4-0.7-0.2-1.7 0.6-1.1 0.8-2 1.8-1.8 2.1-1.3 2.8l0.2 0.1q0.2 0.2 1-0.2 0.8-0.3 1.7-0.9 1-0.5 1.9-1.2 0.9-0.6 1.5-1.1zm10.4-11.7q-1-0.3-2.5 1-1.6 1.3-3.1 3.2-1.5 2-2.6 4.1-1.2 2.1-1.4 3.6 0.8-0.7 2-1.8 1.1-1.1 2.4-2.4 1.2-1.3 2.3-2.6 1.2-1.3 2-2.4 0.8-1.1 1.1-1.8 0.3-0.8-0.2-0.9z"/>
		<path id="&lt;Compound Path&gt;" fill-rule="evenodd" class="s0" d="m131.5 42q0.5-1.1 1.5-1.9 1-0.8 2-1 0.8-0.1 1.5 0 0.7 0.2 0.8 0.9 0.1 0.6-0.5 1.2-0.6 0.7-1.5 1.2-0.9 0.5-1.8 0.8-0.9 0.4-1.2 0.5 0.4 1 1.5 1.5 1.2 0.5 2.7 0.3 2.8-0.4 5.4-1.6 2.7-1.2 4.7-2.5 0.4-0.3 0.7 0 0.3 0.4-0.2 0.7-1 0.8-2.4 1.5-1.4 0.8-2.9 1.4-1.6 0.6-3.2 1-1.6 0.4-3.2 0.4-1 0-1.8-0.3-0.9-0.3-1.5-0.9-0.6-0.6-0.8-1.4-0.2-0.8 0.2-1.8zm4.8-2q-1.3-0.3-2.5 0.7-1.3 1.1-1.6 2.2 0.3-0.1 0.9-0.4 0.7-0.4 1.4-0.7 0.7-0.4 1.3-0.9 0.5-0.5 0.5-0.9z"/>
		<path id="&lt;Compound Path&gt;" class="s0" d="m163.1 60.2q-0.4-0.2-0.4-0.5 0-0.2 0.3-0.4 0.5-0.3 2.1-1.7 1.5-1.4 3.9-3.7l0.6-0.5 0.2-0.1q2.5-3 5.2-6.7 2.7-3.7 5.3-7.8 2.4-3.9 4.3-7.7 2-3.8 3.1-7.1 1.1-3.3 1.2-5.9 0.1-2.6-1.2-4.1l-0.6-0.8-0.7-0.2q-1.3-0.5-3.2-0.2-1.8 0.4-3.9 1.4-2.2 1-4.5 2.6-2.2 1.6-4.5 3.5-2.4 2.1-4.3 4.4-2 2.3-3.4 4.4-1.3 2.2-1.9 4.1-0.6 1.9 0 3.3 0.2 0.7 1.2 0.8 0.9 0.2 2.3-0.3 1.4-0.4 3-1.4 1.6-1 3.3-2.6 1.6-1.5 2.9-3.1 1.3-1.7 2-3.2 0.8-1.5 0.9-2.8 0.2-1.2-0.3-1.8-0.2-0.5 0.3-0.8 0.3-0.3 0.5 0.2 0.6 1 0.4 2.5-0.3 1.5-1.1 3.2-0.9 1.7-2.2 3.4-1.3 1.7-2.7 3-1.4 1.4-3.2 2.5-1.8 1.1-3.4 1.7-1.7 0.5-3 0.3-1.3-0.1-1.8-1.4-0.6-1.6 0-3.7 0.6-2.1 2-4.4 1.5-2.3 3.5-4.6 2-2.3 4.3-4.3 2.3-2 4.8-3.7 2.6-1.7 5-2.8 2.3-1.1 4.4-1.4 2.1-0.3 3.6 0.6h0.1q2.1 1.5 2.2 4.4 0.2 3-0.9 6.6-1.1 3.7-3.2 7.9-2.1 4.1-4.6 8.1-1.4 2.1-2.7 4-1.3 2-2.6 3.7l-0.6 0.7 1.4-1.3q3.2-3.2 6.7-6.6 3.5-3.4 6.9-7 4.7-4.5 9.1-8.7 4.4-4.3 8.1-7.3 1.5-1.3 3-2.4 1.5-1.2 2.7-1.8 1.3-0.7 2.1-0.7 0.8 0 1 1 0.2 0.2-0.1 0.5-0.4 0-0.5 0-0.1-0.1-0.2-0.3 0-0.2-0.3-0.1-0.2 0-0.6 0-0.3 0.1-0.9 0.4-1.2 0.6-2.5 1.7-1.4 1-3.2 2.5-3.7 3-8 7.1-4.3 4.1-9.1 8.8-2.7 2.6-5.3 5.3-2.6 2.6-5.1 5.1-2.5 2.5-4.7 4.8-2.2 2.3-4.1 4.2l-1.3 1-1.7 2q-1.6 1.8-2.9 3-1.4 1.2-2.2 1.2z"/>
		<path id="&lt;Compound Path&gt;" class="s0" d="m191 45.6q-0.4-0.6-0.1-1.4 0.2-0.7 0.7-1.3-0.7 0.4-1 0.5-0.4 0.1-0.8 0.3-0.3 0.3-0.5-0.1-0.3-0.4 0.1-0.6 0.9-0.3 1.3-0.6 0.5-0.3 0.9-0.6 0.3-0.2 0.8-0.5 0.4-0.3 1.2-0.7 0.4-0.3 0.7 0.2 0.2 0.4-0.1 0.6-0.8 0.6-1.2 1.1-0.3 0.5-0.7 1.1-0.6 0.9-0.4 1.2 0.3 0.3 0.8 0.3 0.6 0 1.3-0.2 0.8-0.1 1.2-0.3 1.4-0.4 3.2-1.2 1.7-0.8 3.4-1.7 0.3-0.2 0.4-0.2 0.1 0.1 0.4 0.2 0.2 0.4-0.3 0.7-0.8 0.5-2.4 1.3-1.6 0.8-3.4 1.5-1.8 0.6-3.4 0.9-1.6 0.2-2.1-0.5zm3.5-7.4q-0.2-0.1-0.1-0.3 0-0.2 0.2-0.2 0.4-0.5 0.9-0.9 0.5-0.5 0.8-1.2 0.3-0.5 0.6-0.1 0.6 0.3 0.3 0.6-0.9 1.6-2 2.3-0.5 0.3-0.7-0.2z"/>
		<path id="&lt;Compound Path&gt;" fill-rule="evenodd" class="s0" d="m198.7 42q0.4-1.1 1.4-1.9 1-0.8 2-1 0.8-0.1 1.5 0 0.8 0.2 0.8 0.9 0.1 0.6-0.5 1.2-0.6 0.7-1.5 1.2-0.9 0.5-1.8 0.8-0.9 0.4-1.2 0.5 0.4 1 1.6 1.5 1.1 0.5 2.6 0.3 2.8-0.4 5.5-1.6 2.6-1.2 4.6-2.5 0.4-0.3 0.7 0 0.3 0.4-0.1 0.7-1 0.8-2.5 1.5-1.4 0.8-2.9 1.4-1.6 0.6-3.2 1-1.6 0.4-3.1 0.4-1.1 0-1.9-0.3-0.9-0.3-1.5-0.9-0.6-0.6-0.8-1.4-0.2-0.8 0.3-1.8zm4.7-2q-1.3-0.3-2.5 0.7-1.2 1.1-1.6 2.2 0.3-0.1 0.9-0.4 0.7-0.4 1.4-0.7 0.7-0.4 1.3-0.9 0.5-0.5 0.5-0.9z"/>
	</g>
</svg>