<svg version="1.2" xmlns="http://www.w3.org/2000/svg" viewBox="0 0 430 496" width="430" height="496">
	<title>vista print 01</title>
	<style>
		tspan { white-space:pre } 
		.s0 { fill: none;stroke: #659060;stroke-linecap: round;stroke-linejoin: round;stroke-width: .9 } 
		.s1 { fill: none;stroke: #234334;stroke-linecap: round;stroke-linejoin: round;stroke-width: .9 } 
		.s2 { fill: none;stroke: #234334;stroke-miterlimit:10;stroke-width: .9 } 
		.s3 { fill: #234334 } 
		.s4 { fill: none;stroke: #234334;stroke-miterlimit:10;stroke-width: 1.8 } 
		.s5 { fill: #e9e8dd } 
		.s6 { fill: none;stroke: #234334;stroke-linecap: round;stroke-linejoin: round;stroke-width: .5 } 
		.s7 { fill: none;stroke: #000001;stroke-miterlimit:10;stroke-width: .4 } 
		.s8 { fill: #000001 } 
		.s9 { fill: #659060 } 
		.s10 { fill: none;stroke: #659060;stroke-linecap: round;stroke-linejoin: round;stroke-width: 1.8 } 
		.s11 { fill: #82a68a } 
		.s12 { fill: #cfaf8c } 
		.s13 { fill: none;stroke: #234334;stroke-miterlimit:10;stroke-width: .5 } 
		.s14 { fill: none;stroke: #234334;stroke-miterlimit:10;stroke-width: .4 } 
		.s15 { fill: #c02636 } 
		.s16 { fill: #ed2c43 } 
		.s17 { fill: none;stroke: #ed2c43;stroke-miterlimit:10;stroke-width: 1.1 } 
		.s18 { fill: none;stroke: #c02636;stroke-miterlimit:10;stroke-width: 1.8 } 
		.s19 { fill: none;stroke: #234334;stroke-miterlimit:10;stroke-width: .7 } 
	</style>
	<g id="&lt;Group&gt;">
		<path id="&lt;Path&gt;" class="s0" d="m173.1 138.4c-0.2 2.2-1.2 4.4-2.7 6.1-0.1 0.1-0.2 0.2-0.4 0.2-0.1-0.1-0.1-0.4 0-0.3"/>
		<path id="&lt;Path&gt;" class="s0" d="m164.3 152.8c-4.9 2.1-8.6 6.6-9.8 11.8-0.3 1.4-0.3 2.9 0.6 3.9q0-0.4 0-0.8"/>
		<path id="&lt;Path&gt;" class="s0" d="m160.1 145.1c-0.4-0.2-0.8 0-1.2 0.2-6.5 3.9-11.1 10.9-12.1 18.4"/>
		<path id="&lt;Path&gt;" class="s1" d="m304.1 150.2l-19.3-17.2 2.4-6.8 14.1 13.4c0 0 1.7 10.5 2.8 10.6z"/>
		<path id="&lt;Path&gt;" class="s2" d="m319.4 156.1l-3 5.2"/>
		<path id="&lt;Path&gt;" class="s3" d="m349.3 165.7c5.6 17.2 12.4 34.1 16 51.8 0 0.3 0 0.7-0.1 1.1-3.8 6.7-5.6 16.2 0.2 22.3 0 0 5.8 13.7 5.8 13.7 5.2 7.3 13.4 18.4 18.8 25.2 2.4 2.1 5.9 5.3 8.4 7.1l0.2 0.1c0.2 1.3 0.2 2.5-0.1 3.6-1.6 7.6-7.8 13.1-13.7 17.5l0.2-0.8c2.1 4.8 3.9 10.4 7.3 14.4 0.3 0.3 0.8 0.5 0.9 1 0.2 0.7 0 1.1-0.1 1.4-2.2 4.5-6.1 7.8-9.5 11.3l-0.1-1.2q2.5 1.5 4.3 3.8c4 5.1 1.2 11.5-2.8 15.6l0.2-0.7 7.2 26.6v0.2c-2 8.8-6.6 17.9-15.3 21.6-6.1 2.4-12.4 1.4-18.8 0.8-9.6-1.3-19.4-4.3-28.1-7.9-16.5-4.5-35.7-3.7-50.1 6.3-4.8 3.3-8.9 7.6-12.3 12.3-9.6 10.8-17.3 24-20 38.4-0.7 3.6-0.7 7.3-1.4 10.9-0.6 3.7-1.6 7.4-3.3 10.7-3.1 7-10.9 10.8-11.7 18.3l-1.1-0.1c0.1-10.3 0.8-20.5 2.6-30.7 1.8-8.6 4.4-23.2 14.5-25.6l1.5-0.3-1.3 0.8c-9.8 7.3-12.9 20.5-14.3 32l-0.5 6-0.1 6.1 0.1-6.1 0.3-6c1.4-11.7 4.4-25 14.2-32.5l0.2 0.5c-9.7 2.7-11.9 16.8-13.7 25.3-1.7 10.1-2.4 20.3-2.4 30.5l-1-0.1c0.5-3.8 2.5-7.2 5.2-9.9 6.9-6.4 9.7-15.3 10.3-24.5 1.4-16.8 9.8-32.3 20.9-44.7 3-4.4 7.6-9.3 12.4-12.6 14.9-10.3 34.4-11.2 51.5-6.6 11.9 4.7 24.6 8.2 37.4 8.4 13.2 1.1 20.1-11.4 22.7-21l-7.1-26.7-0.1-0.4c0.5-0.6 1.5-1.8 2-2.4 4.6-5.9 3-12-3.7-15.5l0.7-0.7c2.9-2.8 5.9-5.7 8.3-9 0.4-0.7 1-1.5 1-2.2-1.4-0.9-2.2-2.6-3-3.9-2.1-3.9-3.7-7.9-5.3-11.9 5.1-3.7 10.3-8.1 12.8-14 0.8-1.8 1.3-4 1.1-5.8l0.3 0.4c-2.6-2.1-6.1-5-8.6-7.3-5.6-7.1-13.5-18-18.8-25.5h-0.1v-0.1l-5.8-13.6c-5.6-5.7-3.9-16.6 0.1-23.1-0.1-4.4-1.8-9-2.9-13.2-3.8-13.2-8.1-26.3-12.4-39.4z"/>
		<path id="&lt;Path&gt;" class="s3" d="m262.8 246.2c-9-4.9-22.2-11.1-31.4-4.1-8.2 7.8-6.9 21.3-3 31 2.9 6.8 7.4 12.9 12.9 18 5 5.6 10.1 11 14.3 17.1 0.4 0.7 0.9 1.5 1.2 2.2 1.9 6.7 9 12.5 16.7 10.3 2.1-2.2 4-6.7 2.3-10.1 0.4 0.8 0.7 1.7 0.8 2.7 0.4 2.9-0.9 5.8-2.8 7.9-5.5 1.8-11.6-0.1-15.1-4.7-1.3-1.7-2.4-3.5-3.1-5.5-0.8-1.6-1.9-3.1-3-4.5-4-4.9-8.3-9.6-12.6-14.2-5.4-4.9-10.5-11.4-13.2-18.6-4.1-10.3-5.4-24.6 3.8-32.6 10-7.2 23.1-0.6 32.2 5.1z"/>
		<path id="&lt;Path&gt;" class="s3" d="m256.7 253.1c-3.2-1.7-6-4.2-9.6-5 3.8-0.5 7.3 2.3 9.6 5z"/>
		<path id="&lt;Path&gt;" class="s3" d="m242.2 248.1c-11.2 1.6-8.3 14.5-5.1 21.9 1 2.8 2.4 5.5 3.5 8.3-1.5-2.6-3-5.2-4.2-8-3.7-7.4-6-21.7 5.8-22.2z"/>
		<path id="&lt;Path&gt;" class="s3" d="m265.9 271.4c0.4-0.1 0.8 0.2 1 0.5 0.8 1 0.4 2.4-0.4 3.3-2.5 2.4-3.6 4.2 0.4 5.7 0.7 0.3 1.4 0.6 2 1.1 0.6 0.5 1.1 1.2 0.9 2-0.1-0.8-0.6-1.3-1.2-1.7-1.8-1.1-5.2-1-5.3-3.9 0.3-2.7 3.3-3.1 3.6-5.4 0.1-0.6-0.2-1.5-1-1.6z"/>
		<path id="&lt;Path&gt;" class="s1" d="m229.6 280c0 0 17.1 41 4.1 63.5l8.5 3.1c0 0 5.5-40.6-4.3-56.2z"/>
		<path id="&lt;Path&gt;" class="s4" d="m242.4 348c0 0-2.4 19.4 3.2 23.9l-5.2 14.1-31.6-12.8 6.5-14.9c0 0 10.8 0.2 18.4-13.5z"/>
		<g id="&lt;Group&gt;">
			<path id="&lt;Path&gt;" class="s5" d="m234.7 383.7l-6.2 14.7c0 0-2.8 2.6-6.1 1.3 0 0-1.1-0.9-1.7-3.7l6.5-15.3z"/>
		</g>
		<path id="&lt;Path&gt;" class="s4" d="m234.7 383.7l-6.2 14.7c0 0-2.8 2.6-6.1 1.3 0 0-1.1-0.9-1.7-3.7l6.5-15.3z"/>
		<g id="&lt;Group&gt;">
			<path id="&lt;Path&gt;" class="s5" d="m222.8 378.4l-6.2 14.7c0 0-2.8 2.6-6.1 1.3 0 0-1.1-0.9-1.7-3.7l6.5-15.3z"/>
		</g>
		<path id="&lt;Path&gt;" class="s4" d="m222.8 378.4l-6.2 14.7c0 0-2.8 2.6-6.1 1.3 0 0-1.1-0.9-1.7-3.7l6.5-15.3z"/>
		<path id="&lt;Path&gt;" class="s3" d="m231.8 390.7l-7.3-2.5 2.7-7.5 7.5 3z"/>
		<path id="&lt;Path&gt;" class="s3" d="m219.8 385.7l-7.2-2.5 2.7-7.5 7.5 3z"/>
		<path id="&lt;Path&gt;" class="s3" d="m380.6 99.5c-4.5 0.8-9.5 0-13-2.9 3.7 2.7 8.5 3.3 13 2.9z"/>
		<path id="&lt;Path&gt;" class="s3" d="m365.5 97.2c2.3 3.2 6.7 3.9 10.2 5-3.6-0.7-8.2-1.6-10.2-5z"/>
		<path id="&lt;Path&gt;" class="s3" d="m365.2 96.4c-1.8 3.1-0.4 6.2 2.6 7.6l-1-0.5c-2.7-1.4-3.4-4.7-1.6-7.1z"/>
		<path id="&lt;Path&gt;" class="s3" d="m366 95c1.9-3.5 6.5-4.4 10-5.2-3.5 1.2-7.9 2-10 5.2z"/>
		<path id="&lt;Path&gt;" class="s3" d="m365.7 95.7c-1.9-2.2-1.3-5.6 1.3-7 0 0 1.1-0.5 1.1-0.5-3.1 1.4-4.3 4.6-2.4 7.5z"/>
		<path id="&lt;Path&gt;" class="s3" d="m366 95c1.8-2.2 5.1-2.7 7.8-3.3-2.7 0.8-5.8 1.3-7.8 3.3z"/>
		<path id="&lt;Path&gt;" class="s3" d="m365.7 95.5c-1.6-1.9 0.4-4.1 2.4-4.6-1.9 0.7-3.7 2.6-2.4 4.6z"/>
		<path id="&lt;Path&gt;" class="s3" d="m365.1 96.9c-0.1 2.2 2.3 3.7 3.9 5.1-1.7-1.2-4.2-2.8-3.9-5.1z"/>
		<path id="&lt;Path&gt;" class="s3" d="m365.3 96.4c-1.8 0.8-3.5 2.7-2 4.6-1.8-1.8 0.1-4 2-4.6z"/>
		<path id="&lt;Path&gt;" class="s3" d="m364.8 96.2c-5.8 0-11.9 0.9-16.3 4.8 4-4.3 10.7-5.1 16.3-4.8z"/>
		<path id="&lt;Path&gt;" class="s3" d="m348.6 101c0 0-9.3 2.1-9.1 5.9 0 0 1.7 0.6 2.8 0 0 0 5.2-1.9 6.3-5.9z"/>
		<path id="&lt;Path&gt;" class="s3" d="m400 153.5l4.4 5.8-6.2 12.9-5.5-1.1z"/>
		<path id="&lt;Path&gt;" class="s6" d="m400 153.5l-9.8-3.9-7.5 17 10 4.5z"/>
		<path id="&lt;Path&gt;" class="s3" d="m392.1 144.8c0.3 0 1.1 6 1.1 6l-3-1.2z"/>
		<path id="&lt;Path&gt;" class="s3" d="m385.1 167.7l-4.1 2.7 1.7-3.8"/>
		<path id="&lt;Path&gt;" class="s0" d="m392.1 144.8l-11.1-4.6-11.9 26.4 11.9 3.8z"/>
		<path id="&lt;Path&gt;" class="s0" d="m378.9 144.8l-9.8-3.7-6.5 14.2 8.9 3.9z"/>
		<path id="&lt;Path&gt;" class="s0" d="m368 141.9l-7.3-1.7-3.7 8.4 5.6 4.9z"/>
		<path id="&lt;Path&gt;" class="s0" d="m360 140.2c-0.3-0.1-4.8-1.8-4.8-1.8l-3.3 6.8 5.1 3.4z"/>
		<path id="&lt;Path&gt;" class="s0" d="m354.5 137.5l-7.3-4-3.1 6.7 7.3 4.6z"/>
		<path id="&lt;Path&gt;" class="s0" d="m339.7 130.7c0 0-30.9-15.9-38.1 3.5 0 0-2 17.1 12.9 32.7l3.1-4.1c0 0-15.8-19.2-8.8-27.8 0 0 5.6-9.3 26.8 2.6z"/>
		<path id="&lt;Path&gt;" class="s1" d="m320.5 170.4c13.5 2.2 27.7-4.7 27.7-4.7 0 0 5.2-4.3-13.9-12.2l-3.9 5.7c0 0 10.9 4.2 13.7 7.4"/>
		<path id="&lt;Path&gt;" class="s1" d="m325.8 151c0 0-14.9-5.7-18.8-9.9 0 0 1.6 11.2 5 12.4l9.7 3.4z"/>
		<path id="&lt;Path&gt;" class="s3" d="m329.9 55.2c3.7 5.8 2.5 13.6-1.9 18.7l1.3-2.1c3.4-4.8 3.4-11.5 0.6-16.6z"/>
		<path id="&lt;Path&gt;" class="s3" d="m330 76.3c5.4-3.5 7.2-10.4 8-16.5l-0.3 2.4c-0.8 5.3-2.7 11.3-7.7 14.1z"/>
		<path id="&lt;Path&gt;" class="s3" d="m328.4 77.1c6.4 0.4 13.6-1.9 16.4-8-2.5 6.3-10 8.7-16.4 8z"/>
		<path id="&lt;Path&gt;" class="s3" d="m324.9 77.1c-5.7 0.1-10.5-4-14-8.1l-1.4-1.9c3.8 4.7 8.9 9.8 15.4 10z"/>
		<path id="&lt;Path&gt;" class="s3" d="m326.6 77c-5 3.8-12.7 5.6-18.1 1.5 5.6 3.8 12.9 2.1 18.1-1.5z"/>
		<path id="&lt;Path&gt;" class="s3" d="m325 77c-4.6-0.6-7.9-4.6-10.4-8.1 2.8 3.3 5.9 7.2 10.4 8.1z"/>
		<path id="&lt;Path&gt;" class="s3" d="m326.1 77.1c-3.2 2.7-8.3 2.7-11.3-0.3 3.2 2.7 7.9 2.7 11.3 0.3z"/>
		<path id="&lt;Path&gt;" class="s3" d="m329.4 77c4.5-0.9 7.6-4.8 10.3-8.2-2.5 3.6-5.7 7.6-10.3 8.2z"/>
		<path id="&lt;Path&gt;" class="s3" d="m328.3 77.1c3.4 2.4 8 2.4 11.2-0.3-3 3-8 3-11.2 0.3z"/>
		<path id="&lt;Path&gt;" class="s3" d="m326.6 77.3c6.6 2.3 6.6 19.2 4.2 24.6h-0.1c2-6.2 2.6-21.2-4.1-24.6z"/>
		<path id="&lt;Path&gt;" class="s3" d="m330.5 102.3c0 0-4.6 6.1-4.7 13.5 0 0 0.8 0.9 1.4-0.7 0 0 2.6-4.8 3.3-12.8z"/>
		<path id="&lt;Path&gt;" class="s1" d="m259.3 166.5q-0.8 9.4-0.7 18.7-2.7 0.2-5.3 0.4c-0.3 0-0.6 0-0.8-0.2-0.1-0.2-0.2-0.5-0.2-0.7-0.1-9.4 0.7-18.8 2.3-28 0.2-0.9-0.8-1.6 0-1.7 1.9-0.2 2.8 0.5 3.8 0.7 0.8 0.1 2.6 1 2.8 1.8 0.3 0.9 0 0-0.3 0.8-1.1 2.6-1.4 5.5-1.6 8.2z"/>
		<path id="&lt;Path&gt;" class="s1" d="m300.5 178.3c0 0-97.9 23.2-109.1-5.8 0 0-2.2-7.8 6.1-9.1 0 0-12-5.2-13.5 3.8 0 0-6.1 26.3 48.8 26 0 0 31.9-1.3 57.6-6.7z"/>
		<path id="&lt;Path&gt;" class="s1" d="m237.9 187c-1-0.3-27-20.5-40.4-23.6 0 0-7.8 2-6.1 9.1 0 0 4.4-5.4 20.3 5.1 0 0 10.4 8.4 10.9 8.4 0.5 0-0.5 0-0.5 0z"/>
		<path id="&lt;Path&gt;" class="s1" d="m310.3 170.8c0 0-15.7 1.3-37.3-16.6 0 0-21.8-17.3-29.3 1.6 0 0 2.1 7.3 6.8 8.4-1.1 0.2 1.5-15 10.7-6.8l-0.3 0.8c0 0 8.5 4.3 16.1 11.3 0 0 17.9 10.3 24.3 8.1z"/>
		<path id="&lt;Path&gt;" class="s1" d="m311.1 178.9c0 0 2.7 1.3 11 1.1 8.3-0.1 0.8 0 0.8 0 0 0-9.2 1.7-13.9 1.2"/>
		<path id="&lt;Path&gt;" class="s0" d="m350.6 126.3c0 0 0.1-0.5 0 0-0.7 3-5.2 16.6-33.4 47.2 0 0-25 23.3-32.3 25.7 0 0-32.7 24.2-38.7 39.3 0 0-9.9-1.5-11.2 0 0 0 22.6-33.4 45.7-45.3 0 0 33.8-20.3 39.8-34.8 0 0 21.3-26.7 22-34.5 0 0 1.9-2.8 8.1 2.6"/>
		<path id="&lt;Path&gt;" class="s3" d="m310 82.4c-8 11.2-20.1 12.3-29.9 2.7l-3.4-3.7 3.5 3.5c9.8 9.4 21.6 8.3 29.8-2.5z"/>
		<path id="&lt;Path&gt;" class="s3" d="m307.2 81.7c-4.8 9.2-14.4 13.6-24.2 9.6-1.3-0.5-2.5-1.2-3.7-1.7 1.8 0.8 3.8 1.7 5.7 2.2 8.8 2.8 18-2.3 22.2-10.1z"/>
		<path id="&lt;Path&gt;" class="s3" d="m308.7 89c-12.5 7.1-23.9 0.5-29.5-11.5 1.5 2.5 3.3 4.9 5.3 7.1 6.4 7.3 15.6 8.4 24.2 4.4z"/>
		<path id="&lt;Path&gt;" class="s3" d="m285 76.3c2.1 7.6 7.2 16.4 16 16.6 1.1 0.1 2.5-0.2 3.6-0.2-10.4 2.6-17.8-7.2-19.6-16.4z"/>
		<path id="&lt;Path&gt;" class="s7" d="m296.8 109.4c-0.1-0.5-0.8-17.5-0.8-17.5"/>
		<path id="&lt;Path&gt;" class="s3" d="m296.7 107.5c0 0 4.5 12.5-0.7 13.8 0 0-3.4-2.9 0.7-13.8z"/>
		<path id="&lt;Path&gt;" class="s1" d="m313.2 168.5c0 0-34.6-15.3-39.1-22.8 0 0-13.4-14.8-30.8-4.6 0 0-7.9 14.9 9.9 24.6l-0.9 7.2c0 0-17.3-6.3-18.7-29.4 0 0 6.6-20.3 33.6-11.3 0 0 5.2 0.2 23.2 15.6 0 0 18.8 15.5 18.8 12.5l5.3 6.6z"/>
		<path id="&lt;Path&gt;" class="s3" d="m254 158.2q-0.1 0.9-0.2 1.8-0.2 2-0.3 4c-0.1 0.4-0.2 0.8-0.5 0.9-0.2 0.1-0.4 0-0.7-0.2q-0.9-0.4-1.8-0.8c-0.4-0.2-0.9-0.5-1.1-0.9-0.2-0.3-0.2-0.6-0.2-0.9 0.1-1.6 2.2-2.3 2.5-3.9 0.2-1.3 1.9-2.7 2.9-3.2-0.1 0.8-0.6 2.4-0.6 3.2z"/>
		<path id="&lt;Path&gt;" class="s1" d="m274.1 113.8c0 0 17.3-4.8 12.1 15.2 0 0-5.2 13.7-5.6 11.2-0.1-0.8-7.5-5.3-7.5-5.3l5.6-10.3c0 0 3-7-4.6-10.8z"/>
		<path id="&lt;Path&gt;" class="s1" d="m285.3 116.1c0 0-4.5-11.7-23-6 0.4 0.4-10.7 5.1-10.4 18.9l8.6 0.9c0 0 7.9-24.5 24.8-13.8z"/>
		<path id="&lt;Path&gt;" class="s8" d="m266.5 146.1c-2.2-2.7-4.1-3.6-7-1.5q0.3-0.4 0.7-0.9c2.3-2.6 5.7-0.5 6.3 2.4z"/>
		<path id="&lt;Path&gt;" class="s8" d="m276.1 124.6c-1.6-2.3-3.8-3.5-6.5-2.8 2.4-2.2 6.1-0.3 6.5 2.8z"/>
		<path id="&lt;Path&gt;" class="s8" d="m271.1 129c-1.7-2-3.9-1.8-6.1-1.3 1.8-1.9 5.6-1.6 6.1 1.3z"/>
		<path id="&lt;Path&gt;" class="s1" d="m278.7 124.6l-7.6-8.5"/>
		<path id="&lt;Path&gt;" class="s1" d="m266.8 108.5c0 0-24.9-19.7-45.3 4.4l-1.7-10c0 0 29.2-23.3 54.3 5.6"/>
		<path id="&lt;Path&gt;" class="s1" d="m204 114.6c0 0-20.6 17.3-32 14.4l-1.6 9.2c0 0 16.2 1.9 36.7-15.8"/>
		<path id="&lt;Path&gt;" class="s1" d="m218.8 120.1c0 0 7.9 36-5.2 50.7"/>
		<path id="&lt;Path&gt;" class="s1" d="m211 122.4c0 0 7.5 34.9-5.2 44.2"/>
		<path id="&lt;Path&gt;" class="s1" d="m209.3 177.6l-5.8 5.5"/>
		<path id="&lt;Path&gt;" class="s1" d="m203 172.9l-6.9 6"/>
		<path id="&lt;Path&gt;" class="s1" d="m199.6 188.4c0 0-9.7 5.9-13.6 13.7"/>
		<path id="&lt;Path&gt;" class="s1" d="m191.1 184.1c0 0-11.9 8.3-14.2 18"/>
		<path id="&lt;Path&gt;" class="s1" d="m222.6 118.2l-11.6 4.2-8.1-22.6 14.6-3z"/>
		<path id="&lt;Path&gt;" class="s1" d="m202.9 99.8l-2.3 3.3 7.2 19.8 3.2-0.5z"/>
		<path id="&lt;Path&gt;" class="s1" d="m215.3 96.7c0.3-0.1-4.3-11-4.3-11l-8.1 1.5 2.9 11.8z"/>
		<path id="&lt;Path&gt;" class="s3" d="m202.3 87.1l-2.2 2.5 2.2 10.2 3.5-0.8z"/>
		<path id="&lt;Path&gt;" class="s3" d="m221.9 114.9l-12.2 3.9-0.6-1.7 12.4-3.7z"/>
		<path id="&lt;Path&gt;" class="s3" d="m221.2 112.2l-12.2 3.9-0.6-1.7 12.4-3.7z"/>
		<path id="&lt;Path&gt;" class="s3" d="m222.3 117.6l-12.2 3.9-0.6-1.7 12.4-3.7z"/>
		<path id="&lt;Path&gt;" class="s0" d="m227.2 276.3c0 0-6.1 31.9-43.4 52.1l-4.5-3.5c0 0 33-9.6 45.2-58.3"/>
		<path id="&lt;Path&gt;" class="s9" d="m174.4 329.9l4.8 4.2c1.1 0.9 2.8 0.8 3.8-0.3l1.4-1.7c1-1.1 0.9-2.8-0.3-3.8l-4.7-4.1c-1.2-1-2.9-0.9-3.8 0.3l-1.5 1.6c-0.9 1.1-0.8 2.9 0.3 3.8z"/>
		<path id="&lt;Path&gt;" class="s0" d="m174.4 329.9l4.8 4.2c1.1 0.9 2.8 0.8 3.8-0.3l1.4-1.7c1-1.1 0.9-2.8-0.3-3.8l-4.7-4.1c-1.2-1-2.9-0.9-3.8 0.3l-1.5 1.6c-0.9 1.1-0.8 2.9 0.3 3.8z"/>
		<path id="&lt;Path&gt;" class="s10" d="m180.6 334.2l-11.7 18-11.1-9 16.2-14.8"/>
		<path id="&lt;Path&gt;" class="s0" d="m151.5 358.6l0.7 0.8c0.6 0.6 1.5 0.6 2 0.1l9.9-9.8c0.6-0.5 0.6-1.4 0.1-2l-0.8-0.8c-0.6-0.5-1.5-0.5-2 0l-9.9 9.8c-0.6 0.5-0.6 1.4 0 1.9z"/>
		<path id="&lt;Path&gt;" class="s1" d="m217.7 286.2c0 0-34.7 36.1-77.5 28.3v-6.1c0 0 38.9 9.7 82.6-37"/>
		<path id="&lt;Path&gt;" class="s1" d="m135.5 319.3h2.1c1.5 0 2.6-1.2 2.6-2.7v-9.5c0-1.4-1.1-2.6-2.6-2.6h-2.1c-1.5 0-2.6 1.2-2.6 2.6v9.5c0 1.5 1.1 2.7 2.6 2.7z"/>
		<path id="&lt;Path&gt;" class="s1" d="m129.1 323.2h1.7c1.1 0 2.1-1 2.1-2.1v-15.8c0-1.2-1-2.1-2.1-2.1h-1.7c-1.2 0-2.1 0.9-2.1 2.1v15.8c0 1.1 0.9 2.1 2.1 2.1z"/>
		<path id="&lt;Path&gt;" class="s1" d="m119.9 326.6h3.2c2.1 0 3.9-1.7 3.9-3.9v-18c0-2.1-1.8-3.9-3.9-3.9h-3.2c-2.2 0-4 1.8-4 3.9v18c0 2.2 1.8 3.9 4 3.9z"/>
		<path id="&lt;Path&gt;" class="s1" d="m115.9 303.5l-17.1 0.7v16.1h17.1"/>
		<path id="&lt;Path&gt;" class="s3" d="m98.8 323.2h17.1l0.5-3.4h-17.6z"/>
		<path id="&lt;Path&gt;" class="s0" d="m221.2 218.9c0 0-86.8 33.8-120 10.4 0 0-1.8-8.5 6.4-8.1 0 0 5.1 16.5 73-0.4l46-12.3c0 0-6.6 9.4-5.4 10.4z"/>
		<path id="&lt;Path&gt;" class="s3" d="m104.4 241.3c2.8 7.3 5.4 14.6 8.3 21.7 1.4 3.6 2.9 7.1 4.6 10.5 1.8 3.4 3.6 6.8 6.3 9.7-3.4-2.1-5.9-5.3-8-8.6-2.2-3.4-3.9-7-5.3-10.6-2.9-7.3-5-14.9-5.9-22.7z"/>
		<path id="&lt;Path&gt;" class="s0" d="m232.3 204.4c0 0-20.1-3.3-54.5 8.4 0 0-61.6 14.7-63.8-23.4 0 0-16.3 17.5 11.9 30.7 0 0 23 9.2 54.7 0.7l46-12.3z"/>
		<path id="&lt;Path&gt;" class="s0" d="m132.9 185.7c0 0 1.8 25.6 58.2 15.1 0 0 44.7-7.8 63.5-4.3 0 0-19.3 4.3-20.3 6.8 0 0-32 2.6-39.8 4.6 0 0-45.2 8.6-61.6-5.8 0 0-6.5-8.6 0-16.4z"/>
		<path id="&lt;Path&gt;" class="s1" d="m189.9 185c0 0-21.8 5.5-48.7-13.5l3.6-9c0 0 28.4 19.9 40.3 13.4l7.2 8.2z"/>
		<path id="&lt;Path&gt;" class="s1" d="m184 190.4c0 0-41.9-2.8-47.4 2.7 0 0-8.1-8.5 0-10 0 0 27.2-0.5 29 0 1.7 0.4-1.8-0.5-1.8-0.5 0 0 21.3 5.3 24.9 3.4z"/>
		<path id="&lt;Path&gt;" class="s11" d="m96.8 211.3c0 0-6.9 5.1-15.8 1 0 0 11.3-7.9 15.8-1z"/>
		<path id="&lt;Path&gt;" class="s11" d="m84.9 212.2c-7.3 0.1-14.3 2.7-20.6 6.4 5.8-4.4 13.3-7.1 20.6-6.4z"/>
		<path id="&lt;Path&gt;" class="s11" d="m73.9 240c-3.6-10.6-4.9-28.3-20.8-19.9 15.9-9.5 18.1 8.8 20.8 19.9z"/>
		<path id="&lt;Path&gt;" class="s11" d="m63.6 234.4c-0.1 0.2-0.2 0.5-0.1 0.6 1.2-2.7 1.5-5.7 1.7-8.6 0.4-9.7-5.4-18.5-13.6-23.2 8.4 4.5 14.4 13.5 13.8 23.2-0.2 2.9-0.6 6-1.9 8.6-0.1-0.2 0-0.4 0.1-0.6z"/>
		<path id="&lt;Path&gt;" class="s11" d="m67.3 232.5c2-10.6-6.4-19.5-14.6-25 8.7 4.8 17.5 14.4 14.6 25z"/>
		<path id="&lt;Path&gt;" class="s8" d="m258 109.3c-1.9-1.6-3.9-1.6-6.1-0.8 1.6-2.2 5.3-1.8 6.1 0.8z"/>
		<path id="&lt;Path&gt;" class="s8" d="m248.5 109.2c-2.5-0.8-4.8-0.7-6.3 1.5 0.4-3.1 4.4-3.7 6.3-1.5z"/>
		<path id="&lt;Path&gt;" class="s8" d="m251.9 116c-2.7-0.9-4.1-1.1-6.6 0.1 0.6-3.6 5.8-3.5 6.6-0.1z"/>
		<path id="&lt;Path&gt;" class="s8" d="m251.9 123.2c-2-1.8-4.4-0.9-6.6 0 1.5-2.3 5.6-3 6.6 0z"/>
		<path id="&lt;Path&gt;" class="s1" d="m134.4 163.1c-2.6 5.6-2.8 11-0.5 12.2 2.4 1.1 6.5-2.5 9.1-8.1 2.7-5.6 2.9-11 0.5-12.1-2.4-1.1-6.4 2.5-9.1 8z"/>
		<path id="&lt;Path&gt;" class="s1" d="m137.8 157.8c0.8-0.6-15-7.6-14.3-16.3l-14.2 25.6c0 0 13-6.7 23 3.6 0 0 0.2-8.2 5.5-12.9z"/>
		<path id="&lt;Path&gt;" class="s1" d="m97.1 166.8l4.3 2.4c2.8 1.6 6.5 0.6 8.1-2.2l14.3-25.2c1.6-2.9 0.6-6.5-2.3-8.1l-4.2-2.4c-2.9-1.7-6.5-0.7-8.1 2.2l-14.3 25.2c-1.6 2.8-0.6 6.5 2.2 8.1z"/>
		<path id="&lt;Path&gt;" class="s1" d="m106 139.2c0.5-1.1 0.8-2.1-0.3-2.7l-12.7-7.2c-1.1-0.6-2.4-0.2-3 0.8-0.6 1-0.2 2.4 0.8 3l12.8 7.2c1 0.5 1.8-0.1 2.4-1.1z"/>
		<path id="&lt;Path&gt;" class="s1" d="m97.6 153.8c0.6-1 1.1-2.4 0-3l-12.7-7.2c-1.1-0.6-2.4-0.2-3 0.8-0.6 1.1-0.2 2.4 0.8 3l12.8 7.2c1.1 0.6 1.6 0.2 2.1-0.8z"/>
		<path id="&lt;Path&gt;" class="s1" d="m240.5 163.4c0 0-7 11.7-6.8 19.7l6.8 3.8c0 0 0.4-14.4 5.1-16.6"/>
		<path id="&lt;Path&gt;" class="s1" d="m261.3 148c0 0-3.8-4.2-3.3-9.8"/>
		<path id="&lt;Path&gt;" class="s1" d="m252.3 146.8c0 0-2.8-6.1-2-8.6"/>
		<path id="&lt;Path&gt;" class="s1" d="m276.1 148.6l-3.1 5.6"/>
		<path id="&lt;Path&gt;" class="s1" d="m269.8 142.5l-3 6.6"/>
		<path id="&lt;Path&gt;" class="s1" d="m259.3 166.5c0 0 22.2 15.8 32.8 13.6"/>
		<path id="&lt;Path&gt;" class="s1" d="m259.3 175.2c0 0 9.5 9 16.4 7.9"/>
		<path id="&lt;Path&gt;" class="s1" d="m262.8 159.2c0 0-2.9 8.2 2.9 11.5"/>
		<path id="&lt;Path&gt;" class="s1" d="m269.5 163.4c0 0-2.4 10.1 7.5 13.4"/>
		<path id="&lt;Path&gt;" class="s1" d="m114 189.4c0 0 7.1-4.8 16 3.8l2.9 8.9c0 0-15.6-12.4-16.5-4"/>
		<path id="&lt;Path&gt;" class="s1" d="m107.6 221.2c0 0 4 8 25.4 1.8 1.6-0.5 11.7 1.4 11.7 1.4l-8.1 3.9"/>
		<path id="&lt;Path&gt;" class="s1" d="m167.4 139.5c1.9 0.4 3.1-0.3 3-2.3l1.3-6.5c0.9-1.8 0.3-4-1.6-4.4-1.9-0.4-3.8 0.9-4.2 2.8l-1.3 6.2c-0.4 1.9 0.9 3.8 2.8 4.2z"/>
		<path id="&lt;Path&gt;" class="s1" d="m156.6 140.6l3 0.6c2 0.4 4-0.9 4.4-2.9l2.6-12.9c0.5-2-0.9-4-2.9-4.4l-3-0.7c-2-0.4-4 0.9-4.4 3l-2.6 12.8c-0.5 2.1 0.9 4.1 2.9 4.5z"/>
		<path id="&lt;Path&gt;" class="s1" d="m134.4 132.8l19.1 3.9 3.1-15-19.1-3.9z"/>
		<path id="&lt;Path&gt;" class="s1" d="m136.5 122.4l13.7 2.2c0 0 3.4 2-0.8 6.2l-14-2.9"/>
		<path id="&lt;Path&gt;" class="s8" d="m250.1 177.9c-2.6-1.1-5.4-1.6-7.2 1 0.7-3.7 5.2-3.5 7.2-1z"/>
		<path id="&lt;Path&gt;" class="s3" d="m238.7 130.8c-3.1-1.2-5.5-0.7-7.2 2.2 0.4-3.8 4.7-4.9 7.2-2.2z"/>
		<path id="&lt;Path&gt;" class="s3" d="m235 121.3c-2.5-1-5.3-0.6-6.7 1.9 0.8-3 4.4-3.6 6.7-1.9z"/>
		<path id="&lt;Path&gt;" class="s3" d="m229.3 127.9c-2.6-0.5-5.2-0.6-6.5 2 0-3.4 4.3-3.9 6.5-2z"/>
		<path id="&lt;Path&gt;" class="s3" d="m229.9 140.5c-2.3-0.3-4.4-0.2-5.4 2-0.3-3.1 3.5-3.8 5.4-2z"/>
		<path id="&lt;Path&gt;" class="s3" d="m229.9 149.1c-2.8-0.6-5.7-0.5-7.1 2.3 0.2-3.7 4.7-4.3 7.1-2.3z"/>
		<path id="&lt;Path&gt;" class="s3" d="m229.9 158.2c-1.1-0.1-2.2-0.4-3.3-0.1-1 0.2-1.8 1-2.7 1.8 0.5-2.9 3.9-3.6 6-1.7z"/>
		<path id="&lt;Path&gt;" class="s1" d="m217.4 164.8c0 0 13 0.5 19.3-7.8l3.1 5.4c0 0-2.9 6.3-20.6 11"/>
		<path id="&lt;Path&gt;" class="s9" d="m238.7 109.5c0 0 8.2 11.2 3.5 18.4 0 0-6.1-2.2-3.5-18.4z"/>
		<path id="&lt;Path&gt;" class="s9" d="m239.8 115.2c-1.2-5.8-3.1-11.5-4.9-17.1-2-5.6-3.9-11.4-7.7-16 4.4 4.2 6.5 10.1 8.6 15.7 1.7 5.7 3.6 11.4 4 17.4z"/>
		<path id="&lt;Path&gt;" class="s9" d="m242.2 66.3c-1.3 11.9-13.3 18.8-24.6 16.9-3.6-0.4-7.2-1.5-10.5-2.9 3.5 1.1 7 1.9 10.6 2.2 11 1.5 22.3-4.9 24.5-16.2z"/>
		<path id="&lt;Path&gt;" class="s9" d="m242.9 74.7c-6 8.2-17.4 9.6-26.7 7.4-3.2-0.8-6.2-1.9-9.1-3.2 1.5 0.4 3 0.9 4.6 1.4 10.4 3 23.3 3 31.2-5.6z"/>
		<path id="&lt;Path&gt;" class="s9" d="m214.8 86.8c12.9-0.8 19.4-10.3 20.2-22.4-0.1 2-0.1 4.3-0.5 6.3-1.2 9.6-10.1 16.9-19.7 16.1z"/>
		<path id="&lt;Path&gt;" class="s9" d="m229.3 81.8c-10.1 2.3-20.7-2.4-26.8-10.6-0.8-1.2-1.6-2.4-2.4-3.6 1 1.1 1.8 2.3 2.8 3.3 6.5 7.6 16.3 12 26.4 10.9z"/>
		<path id="&lt;Path&gt;" class="s3" d="m209.5 132.9c-2.8-2.3-6.2-2.1-8.9 0.1 1.9-3.4 7-3.6 8.9-0.1z"/>
		<path id="&lt;Path&gt;" class="s3" d="m205 139.2c-3.5-1.4-6.6-0.4-7.8 3.3q0.2-0.6 0.3-1.2c1-3.3 5-3.9 7.5-2.1z"/>
		<path id="&lt;Path&gt;" class="s3" d="m196.1 138.2c-1.7-0.1-3.4-0.5-5-0.1-1.7 0.4-2.7 1.7-3.6 3.2 0.6-4.5 5.2-5.1 8.6-3.1z"/>
		<path id="&lt;Path&gt;" class="s3" d="m209.3 146.8c-1.4-0.2-2.6-0.8-4-0.7-1.3 0.1-2.4 0.9-3.5 1.9 1.4-3.4 5.1-3.5 7.5-1.2z"/>
		<path id="&lt;Path&gt;" class="s3" d="m209.3 155.6c-1.7 0.2-3.4 0-4.9 0.8-1.6 0.6-2.5 2.1-3.3 3.5 0.3-4.3 4.6-5.8 8.2-4.3z"/>
		<path id="&lt;Path&gt;" class="s3" d="m200.1 152.2c-3-0.6-5.9-0.2-7.3 2.8 0.1-3.9 4.6-4.9 7.3-2.8z"/>
		<path id="&lt;Path&gt;" class="s1" d="m208.4 163.9c-0.5 0.8-31.9-3.7-41-24.4"/>
		<path id="&lt;Path&gt;" class="s1" d="m184 167.2c0 0-17.4-3.7-25.9-26.3"/>
		<path id="&lt;Path&gt;" class="s0" d="m157.2 121.1c0.5-1 1.3-1.8 2.2-2.4 4.5-3.1 11.5-2 14.8 2.4 0.9 1.2 1.5 2.6 1.6 4.1 0.1 1.5-0.5 3.1-1.6 4-0.3 0-0.6-0.3-0.5-0.6"/>
		<path id="&lt;Path&gt;" class="s1" d="m166.2 124.2c1.3-0.5 3 0.2 3.6 1.5"/>
		<path id="&lt;Path&gt;" class="s12" d="m144.8 174.1c0.5 5.5 4.2 10.1 8.5 13.5 4.2 3.5 9.1 6 13.3 9.5 1.5 1.3 3.1 3 3 5 0 0.3 0.3 0.5 0.5 0.3 0.2-0.1-0.2-0.4-0.3-0.2 2.4 0 4.8 0.3 7.1-0.2-1.3-3.3-3.3-6.3-5.9-8.8-4.5-4.3-10.5-6.9-14.3-11.8-0.5-0.7-0.9-1.4-1.5-1.8-0.6-0.5-1.2-0.7-1.8-1-3-1.3-5.9-2.6-8.6-4.5z"/>
		<g id="&lt;Group&gt;">
			<path id="&lt;Path&gt;" class="s5" d="m144.8 174.1c0.5 5.5 4.2 10.1 8.5 13.5 4.2 3.5 9.1 6 13.3 9.5 1.5 1.3 3.1 3 3 5 0 0.3 0.3 0.5 0.5 0.3 0.2-0.1-0.2-0.4-0.3-0.2 2.4 0 4.8 0.3 7.1-0.2-1.3-3.3-3.3-6.3-5.9-8.8-4.5-4.3-10.5-6.9-14.3-11.8-0.5-0.7-0.9-1.4-1.5-1.8-0.6-0.5-1.2-0.7-1.8-1-3-1.3-5.9-2.6-8.6-4.5z"/>
		</g>
		<path id="&lt;Path&gt;" class="s3" d="m124.8 160q-4.5-1.3-9.1-1.8c-0.3 0-0.7-0.1-1 0.1-0.3 0.2-0.5 0.5-0.6 0.7q-0.8 1.3-1.5 2.5c6.9-0.3 13.8 1.3 19.8 4.6 0.1 0 0.3 0.1 0.4 0q0.1-0.1 0.1-0.2c0.2-0.9 0.5-1.5-0.1-2.2-0.5-0.7-1.8-1.2-2.5-1.6-1.8-0.9-3.6-1.6-5.5-2.1z"/>
		<path id="&lt;Path&gt;" class="s9" d="m389.2 152.8l6.7 2.2-2.7 6.9c0 0 2.5-9.1-5.1-6.6"/>
		<path id="&lt;Path&gt;" class="s9" d="m176.2 331.5l-13 12.4 3 2.7c0 0-5-1.1 10-15.1z"/>
		<path id="&lt;Path&gt;" class="s0" d="m176.2 331.5l-13 12.4 3 2.7c0 0-5-1.1 10-15.1z"/>
		<path id="&lt;Path&gt;" class="s3" d="m124.9 305.6l-0.4 15.9c0 0-2.6 5.2-7.3 0 0 0 6.4-0.1 7.7-15.9z"/>
		<path id="&lt;Path&gt;" class="s3" d="m131.5 307.9l-0.2 11.3c0 0-1 3.7-2.9 0 0 0 2.6-0.1 3.1-11.3z"/>
		<path id="&lt;Path&gt;" class="s3" d="m138.6 307.3l-0.1 9.3c0 0-0.9 3-2.5 0 0 0 2.2-0.1 2.6-9.3z"/>
		<path id="&lt;Path&gt;" class="s3" d="m120.9 141.5l-13.2 23.7c0 0-9.2 3.9-10.8-4.5 0 0 6.7 7.1 24-19.2z"/>
		<path id="&lt;Path&gt;" class="s3" d="m164.3 125.7l-2.4 11.8c0 0-3.1 3.3-6.3-0.5 0 0 2 3.2 8.7-11.3z"/>
		<path id="&lt;Path&gt;" class="s3" d="m170.4 128.3l-1.2 8.9c0 0-1.5 2.5-3-0.4 0 0 0.9 2.5 4.2-8.5z"/>
		<path id="&lt;Path&gt;" class="s3" d="m215.5 99l-9.7 2.5 3.3 11.4c0 0-3.6-10.5 6.4-13.9z"/>
		<path id="&lt;Path&gt;" class="s1" d="m344.1 123.1c0 0-5.6-1.9-10.9 4.8"/>
		<path id="&lt;Path&gt;" class="s2" d="m329.4 134.7l-7.9 13.9"/>
		<path id="&lt;Path&gt;" class="s3" d="m164.2 155.8c-2.5 0.4-3.7 2.1-3.5 4.6-1.3-2.5 0.8-5.3 3.5-4.6z"/>
		<path id="&lt;Path&gt;" class="s3" d="m166.1 160.9c-2.5 1.2-2.8 3.5-1.2 5.6l-0.6-0.7c-1.5-1.9-0.4-4.3 1.8-4.9z"/>
		<path id="&lt;Path&gt;" class="s3" d="m161.8 165c-0.7 1-1.7 1.6-2 2.7-0.4 0.9 0 2.1 0.4 3.2-2.2-2.2-1-4.9 1.6-5.9z"/>
		<path id="&lt;Path&gt;" class="s3" d="m172.2 162.3c-0.7 0.6-1.6 0.9-2 1.7-0.5 0.7-0.4 1.7-0.4 2.6-1.3-2.1 0.1-4.2 2.4-4.3z"/>
		<path id="&lt;Path&gt;" class="s3" d="m177.3 166.3c-0.6 1-1.4 1.8-1.5 2.9-0.2 1.1 0.3 2.2 0.7 3.3-2.2-1.9-1.6-4.9 0.8-6.2z"/>
		<path id="&lt;Path&gt;" class="s3" d="m171.7 169.4c-1.8 1.4-2.5 3-1.4 5-2.1-1.6-1-4.5 1.4-5z"/>
		<path id="&lt;Path&gt;" class="s3" d="m232.9 175.4c-2.7-1.1-5.4-1.6-7.2 1 0.7-3.7 5.2-3.5 7.2-1z"/>
		<path id="&lt;Path&gt;" class="s3" d="m215.2 182.9c-2.7-1.2-5.4-1.7-7.2 0.9 0.7-3.7 5.2-3.4 7.2-0.9z"/>
		<path id="&lt;Path&gt;" class="s3" d="m189.2 146.9c-2.9-0.2-5.6 0.2-6.4 3.3-0.6-3.7 3.7-5 6.4-3.3z"/>
		<path id="&lt;Path&gt;" class="s3" d="m181.9 140.1c-2.6 1.1-4.9 2.7-4.2 5.9-2.2-3.1 1.1-6.2 4.2-5.9z"/>
		<path id="&lt;Path&gt;" class="s3" d="m205.4 193.6c-2.9 0.4-5.5 1.4-5.7 4.5-1.3-3.5 2.7-5.6 5.7-4.5z"/>
		<path id="&lt;Path&gt;" class="s3" d="m180.6 191.7c-2.8 0.3-5.5 1.1-5.8 4.3-1.2-3.6 2.9-5.5 5.8-4.3z"/>
		<path id="&lt;Path&gt;" class="s3" d="m155.1 142.8c-2.8-0.6-5.6-0.5-6.8 2.5-0.2-3.8 4.3-4.5 6.8-2.5z"/>
		<path id="&lt;Path&gt;" class="s3" d="m148.3 147.7c-2.8 0.5-5.4 1.5-5.5 4.7-1.4-3.5 2.5-5.7 5.5-4.7z"/>
		<path id="&lt;Path&gt;" class="s3" d="m144.5 177.5c-2.9 0.3-5.5 1.2-5.8 4.3-1.2-3.5 2.8-5.5 5.8-4.3z"/>
		<path id="&lt;Path&gt;" class="s9" d="m264.8 35.3c-2.7 5.2-2.6 11.8 0.6 16.6l1.3 2.2c-4.6-5-5.8-13-1.9-18.8z"/>
		<path id="&lt;Path&gt;" class="s9" d="m264.7 56.4c-5.1-2.6-7.1-8.7-7.8-14.1l-0.2-2.4c1 6.1 2.7 12.9 8 16.5z"/>
		<path id="&lt;Path&gt;" class="s9" d="m266.2 57.3c-6.3 0.9-13.9-1.7-16.3-8.1 2.9 6.1 10 8.3 16.3 8.1z"/>
		<path id="&lt;Path&gt;" class="s9" d="m269.8 57.2c6.5-0.4 11.4-5.3 15.4-10l-1.4 2c-3.4 4.1-8.3 8.3-14 8z"/>
		<path id="&lt;Path&gt;" class="s9" d="m268 57.1c5.4 3.5 12.5 5.2 18.2 1.6-5.4 4.3-13.2 2.4-18.2-1.6z"/>
		<path id="&lt;Path&gt;" class="s9" d="m269.7 57.1c4.5-1 7.5-4.8 10.4-8.1-2.4 3.7-5.8 7.8-10.4 8.1z"/>
		<path id="&lt;Path&gt;" class="s9" d="m268.6 57.2c3.5 2.3 7.9 2.3 11.3-0.2-3 3.1-8.2 3.1-11.3 0.2z"/>
		<path id="&lt;Path&gt;" class="s9" d="m265.3 57.1c-4.6-0.4-8-4.5-10.3-8.1 2.8 3.2 5.9 7.1 10.3 8.1z"/>
		<path id="&lt;Path&gt;" class="s9" d="m266.4 57.2c-3.1 2.9-8.3 2.9-11.3-0.3 3.4 2.6 7.8 2.6 11.3 0.3z"/>
		<path id="&lt;Path&gt;" class="s9" d="m268 57.5c-5.2 2.3-5.4 13-5.2 18 0.1 2.2 0.4 4.4 1.1 6.5-2.5-5.7-2.7-21.9 4.1-24.5z"/>
		<path id="&lt;Path&gt;" class="s9" d="m264.2 82.4c0 0 4.6 6.2 4.7 13.5 0 0-0.8 1-1.4-0.6 0 0-2.6-4.8-3.3-12.9z"/>
		<path id="&lt;Path&gt;" class="s9" d="m79.6 92.9c2 5.4 6.9 9.7 12.7 10.6l2.5 0.5c-6.8 0.1-13.5-4.4-15.2-11.1z"/>
		<path id="&lt;Path&gt;" class="s9" d="m95.2 107.1c-5.4 1.9-11.3-0.7-15.7-3.7l-1.9-1.5c5.1 3.3 11.3 6.7 17.6 5.2z"/>
		<path id="&lt;Path&gt;" class="s9" d="m96.9 106.5c-3.6 5.3-10.6 9.3-17 6.7 6.5 1.9 12.9-1.9 17-6.7z"/>
		<path id="&lt;Path&gt;" class="s9" d="m99.2 103.8c4-5.1 3.6-12.1 2.9-18.1l0.5 2.3c0.8 5.3 0.6 11.7-3.4 15.8z"/>
		<path id="&lt;Path&gt;" class="s9" d="m97.9 105c6.2-1.6 12.3-5.8 13.3-12.4-0.4 6.8-6.9 11.4-13.3 12.4z"/>
		<path id="&lt;Path&gt;" class="s9" d="m99.1 103.8c2.2-4 1.4-8.8 0.9-13.1 1.1 4.1 1.9 9.4-0.9 13.1z"/>
		<path id="&lt;Path&gt;" class="s9" d="m98.4 104.6c4-1 7-4.3 7.3-8.5 0.4 4.3-3.1 8.2-7.3 8.5z"/>
		<path id="&lt;Path&gt;" class="s9" d="m96.1 107.1c-3.4 3.1-8.7 2.9-13 2.2 4.4 0 9.3 0.4 13-2.2z"/>
		<path id="&lt;Path&gt;" class="s9" d="m96.9 106.3c0.1 4.2-3.5 8.1-7.7 8.2 4.1-0.8 7.1-4.1 7.7-8.2z"/>
		<path id="&lt;Path&gt;" class="s9" d="m98.2 105.3c-1.7 7.3 9.6 16.5 15.5 19.4v0.1c-5.3-1.2-18.8-14-15.5-19.5z"/>
		<path id="&lt;Path&gt;" class="s11" d="m114.2 124.8c0 0 7.6 0.7 13.1 5.6 0 0 0.2 1.2-1.4 0.5 0 0-5.3-1.2-11.7-6.1z"/>
		<path id="&lt;Path&gt;" class="s3" d="m158.2 92.1c2 5.4 7 9.8 12.8 10.6l2.5 0.4c-6.8 0.1-13.5-4.3-15.3-11z"/>
		<path id="&lt;Path&gt;" class="s3" d="m173.9 106.3c-5.4 1.8-11.3-0.7-15.7-3.7l-1.9-1.5c5.1 3.4 11.3 6.7 17.6 5.2z"/>
		<path id="&lt;Path&gt;" class="s3" d="m175.5 105.7c-3.6 5.2-10.5 9.2-16.9 6.7 6.4 1.9 12.9-1.9 16.9-6.7z"/>
		<path id="&lt;Path&gt;" class="s3" d="m177.9 102.9c4.1-5 3.7-12 2.8-18l0.5 2.3c0.8 5.3 0.7 11.7-3.3 15.7z"/>
		<path id="&lt;Path&gt;" class="s3" d="m176.6 104.2c6.2-1.6 12.3-5.8 13.3-12.4-0.5 6.8-7 11.3-13.3 12.4z"/>
		<path id="&lt;Path&gt;" class="s3" d="m177.8 103c2.2-4 1.4-8.8 0.8-13.2 1.1 4.2 1.9 9.4-0.8 13.2z"/>
		<path id="&lt;Path&gt;" class="s3" d="m177.1 103.8c4-0.9 7-4.3 7.3-8.5 0.3 4.3-3.2 8.1-7.3 8.5z"/>
		<path id="&lt;Path&gt;" class="s3" d="m174.8 106.3c-3.5 3.1-8.7 2.8-13 2.2 4.3 0.1 9.3 0.4 13-2.2z"/>
		<path id="&lt;Path&gt;" class="s3" d="m175.6 105.5c0 4.2-3.5 8-7.8 8.2 4.2-0.7 7.2-4.1 7.8-8.2z"/>
		<path id="&lt;Path&gt;" class="s3" d="m176.9 104.5c-1.9 7.2 9.6 16.7 15.5 19.4v0.1c-5.4-1.4-18.6-13.7-15.5-19.5z"/>
		<path id="&lt;Path&gt;" class="s3" d="m192.9 124c0 0 7.6 0.7 13.1 5.6 0 0 0.1 1.2-1.4 0.5 0 0-5.3-1.2-11.7-6.1z"/>
		<path id="&lt;Path&gt;" class="s11" d="m109.5 54.6c6.6 2.2 10.6 9.1 10.1 15.9l-0.2-2.5c-0.5-5.8-4.6-11.1-9.9-13.4z"/>
		<path id="&lt;Path&gt;" class="s11" d="m122.7 71.1c2-6.2-1-12.6-4-17.9 0 0 1.3 2 1.3 2 2.7 4.7 4.9 10.6 2.7 15.9z"/>
		<path id="&lt;Path&gt;" class="s11" d="m122 72.7c5.2-3.7 9.3-9.9 7.8-16.5 2 6.5-2.3 13.2-7.8 16.5z"/>
		<path id="&lt;Path&gt;" class="s11" d="m119.2 74.9c-4.3 3.7-10.7 3.4-16 2.4l-2.3-0.6c6 1.2 13.1 2 18.3-1.8z"/>
		<path id="&lt;Path&gt;" class="s11" d="m120.5 73.7c-1.5 6.2-6.4 12.4-13.2 12.5 6.7-0.5 11.3-6.4 13.2-12.5z"/>
		<path id="&lt;Path&gt;" class="s11" d="m119.2 74.8c-3.4 2.2-7.8 1.5-11.5 0.6l-1.7-0.5c4.3 0.8 9.1 1.9 13.2-0.1z"/>
		<path id="&lt;Path&gt;" class="s11" d="m120.1 74.1c-0.7 4.2-4.7 7.4-8.9 6.9 4.1 0 7.7-2.9 8.9-6.9z"/>
		<path id="&lt;Path&gt;" class="s11" d="m122.7 72c2.9-3.5 2.9-8.5 2.9-12.8l0.2 1.7c0 3.8-0.2 8.3-3.1 11.1z"/>
		<path id="&lt;Path&gt;" class="s11" d="m121.9 72.7c4.1-0.2 7.7-3.1 8.6-7.2-0.5 4.2-4.5 7.5-8.6 7.2z"/>
		<path id="&lt;Path&gt;" class="s11" d="m120.7 74c6.9-2.2 16.9 10.7 18.6 16.6-0.8-2.1-1.9-4-3.2-5.8-3-4.1-9.8-12.3-15.4-10.8z"/>
		<path id="&lt;Path&gt;" class="s11" d="m139.3 91.1c0 0 0.2 7.7 4.7 13.5 0 0 1.3 0.2 0.7-1.4 0 0-0.9-5.4-5.4-12.1z"/>
		<path id="&lt;Path&gt;" class="s11" d="m39.6 58.6c1.4 3.9 5.1 6.4 9.2 6.7-4.1 0.1-8.2-2.6-9.2-6.7z"/>
		<path id="&lt;Path&gt;" class="s11" d="m49 67.2c-3.2 1.2-6.8-0.4-9.5-2.2l-1.1-0.9c3.1 2 6.8 4.1 10.6 3.1z"/>
		<path id="&lt;Path&gt;" class="s11" d="m50.1 66.9c-2.2 3.2-6.4 5.6-10.3 4.1 3.9 1.1 7.8-1.2 10.3-4.1z"/>
		<path id="&lt;Path&gt;" class="s11" d="m51.5 65.2c2.4-3.1 2.2-7.3 1.7-11l0.3 1.4c0.5 3.3 0.4 7.2-2 9.6z"/>
		<path id="&lt;Path&gt;" class="s11" d="m50.7 66c3.7-1 7.4-3.6 8.1-7.6-0.3 4.2-4.3 7-8.1 7.6z"/>
		<path id="&lt;Path&gt;" class="s11" d="m51.4 65.2c1.4-2.4 0.9-5.3 0.5-8 0.7 2.6 1.1 5.7-0.5 8z"/>
		<path id="&lt;Path&gt;" class="s11" d="m51 65.8c2.5-0.6 4.3-2.7 4.4-5.2 0.2 2.6-1.9 4.9-4.4 5.2z"/>
		<path id="&lt;Path&gt;" class="s11" d="m49.6 67.2c-2.1 1.9-5.3 1.7-7.9 1.4 2.7 0.1 5.7 0.3 7.9-1.4z"/>
		<path id="&lt;Path&gt;" class="s11" d="m50.1 66.8c-0.1 2.5-2.1 4.8-4.7 4.9 2.5-0.3 4.4-2.4 4.7-4.9z"/>
		<path id="&lt;Path&gt;" class="s11" d="m50.9 66.1c-1 4.7 5.6 9.9 9.4 11.9q0 0 0 0c-3.4-0.9-11.3-8.2-9.4-11.9z"/>
		<path id="&lt;Path&gt;" class="s3" d="m60.6 78c0 0 4.6 0.5 7.9 3.4 0 0 0.1 0.8-0.8 0.4 0 0-3.3-0.8-7.1-3.8z"/>
		<path id="&lt;Path&gt;" class="s13" d="m60.6 78c0 0 4.6 0.5 7.9 3.4 0 0 0.1 0.8-0.8 0.4 0 0-3.3-0.8-7.1-3.8z"/>
		<path id="&lt;Path&gt;" class="s8" d="m78.6 189.5c3.9 1.4 8.2 0 11-2.9-2.5 3.2-7.2 4.7-11 2.9z"/>
		<path id="&lt;Path&gt;" class="s8" d="m91.2 187.6c-1.1 3.2-4.6 5-7.7 6l-1.4 0.3c3.5-1.1 7.4-2.8 9.1-6.3z"/>
		<path id="&lt;Path&gt;" class="s8" d="m91.6 186.5c1.1 3.7 0.4 8.6-3.3 10.6 3.4-2.3 4-6.8 3.3-10.6z"/>
		<path id="&lt;Path&gt;" class="s8" d="m91.2 184.4c-0.9-3.8-4.3-6.3-7.5-8.3l1.3 0.7c2.8 1.7 5.8 4.1 6.2 7.6z"/>
		<path id="&lt;Path&gt;" class="s8" d="m91.3 185.5c1.6-3.5 1.9-8-0.9-11 3.1 2.7 2.8 7.6 0.9 11z"/>
		<path id="&lt;Path&gt;" class="s8" d="m91.1 184.5c-0.9-2.6-3.6-4.1-5.9-5.5 2.4 1.2 5.2 2.8 5.9 5.5z"/>
		<path id="&lt;Path&gt;" class="s8" d="m91.3 185.1c1.1-2.3 0.6-5-1.3-6.7 2.1 1.5 2.6 4.6 1.3 6.7z"/>
		<path id="&lt;Path&gt;" class="s8" d="m91.6 187.1c0.1 2.8-2 5.2-3.9 7 1.7-2 3.8-4.2 3.9-7z"/>
		<path id="&lt;Path&gt;" class="s8" d="m91.5 186.5c2 1.6 2.5 4.6 0.9 6.7 1.3-2.2 0.9-4.9-0.9-6.7z"/>
		<path id="&lt;Path&gt;" class="s8" d="m91.5 185.4c3.1 3.7 11.3 1.8 15.1 0.2-2.8 2.1-13.4 3.6-15.1-0.2z"/>
		<path id="&lt;Path&gt;" class="s3" d="m106.9 185.4c0 0 3.2-3.4 7.6-4.1 0 0 0.6 0.4-0.3 0.9 0 0-2.6 2-7.3 3.2z"/>
		<path id="&lt;Path&gt;" class="s11" d="m161.4 86.1c0 0 2.7 9.8 9 10.7 0 0 1.5-4.3-9-10.7z"/>
		<path id="&lt;Path&gt;" class="s11" d="m164.2 89.4c-3.2-3.1-5.7-6.8-8.1-10.5-2.2-3.8-4.7-7.8-5.1-12.3 2.4 8.5 8.1 15.8 13.2 22.8z"/>
		<path id="&lt;Path&gt;" class="s9" d="m135.1 67.1c7 4.2 16.2 1.5 20.5-5.3 1.3-1.9 2.7-4.9 3.6-7-1.7 4.9-4.4 9.9-8.9 12.7-4.6 2.7-10.8 2.6-15.2-0.4z"/>
		<path id="&lt;Path&gt;" class="s11" d="m139.6 71.5c9.8 0.2 16.1-9 18.8-17.4-2.2 8.6-9 18-18.8 17.4z"/>
		<path id="&lt;Path&gt;" class="s11" d="m159.4 62.1c-6 7.4-15.5 6-22.1 0.1 6.9 5.5 15.7 7 22.1-0.1z"/>
		<path id="&lt;Path&gt;" class="s11" d="m149.9 67.5c5.5-4.8 7.5-12.5 5.9-19.6-0.2-1-0.4-2-0.7-3 0.3 1 0.6 2 0.9 3 1.7 7-0.2 15.1-6.1 19.6z"/>
		<path id="&lt;Path&gt;" class="s3" d="m192 12.1c3.9 5.8 2.7 13.7-2 18.7l1.4-2.1c3.2-4.9 3.2-11.4 0.6-16.6z"/>
		<path id="&lt;Path&gt;" class="s3" d="m192.1 33.2c5.3-3.7 7-10.5 8-16.5l-0.2 2.4c-0.8 5.3-2.8 11.4-7.8 14.1z"/>
		<path id="&lt;Path&gt;" class="s3" d="m190.5 34c6.4 0.2 13.4-2 16.4-8-2.4 6.4-10 8.9-16.4 8z"/>
		<path id="&lt;Path&gt;" class="s3" d="m187 34c-5.7 0.3-10.6-3.9-14-8.1l-1.4-1.9c4 4.6 8.9 9.6 15.4 10z"/>
		<path id="&lt;Path&gt;" class="s3" d="m188.7 33.9c-4.9 4-12.8 5.8-18.1 1.5 5.6 3.7 12.8 1.9 18.1-1.5z"/>
		<path id="&lt;Path&gt;" class="s3" d="m187 33.9c-4.5-0.5-7.8-4.6-10.3-8.1 2.8 3.3 5.9 7.2 10.3 8.1z"/>
		<path id="&lt;Path&gt;" class="s3" d="m188.1 34c-3.1 2.7-8.2 2.7-11.2-0.3 3.2 2.7 7.9 2.7 11.2 0.3z"/>
		<path id="&lt;Path&gt;" class="s3" d="m191.5 33.9c4.5-0.9 7.5-4.8 10.3-8.2-2.4 3.6-5.7 7.7-10.3 8.2z"/>
		<path id="&lt;Path&gt;" class="s3" d="m190.4 34c3.4 2.3 8 2.3 11.2-0.3-3 3-8.1 3-11.2 0.3z"/>
		<path id="&lt;Path&gt;" class="s3" d="m188.7 34.2c6.4 1.6 6.8 19.7 4.2 24.6 0.4-2.1 0.9-4.3 1-6.5 0.3-4.4 0.3-8.9-1.4-13-0.7-2.1-1.8-4.2-3.8-5.1z"/>
		<path id="&lt;Path&gt;" class="s3" d="m192.6 59.2c0 0-4.6 6.1-4.7 13.5 0 0 0.8 0.9 1.4-0.7 0 0 2.6-4.8 3.3-12.8z"/>
		<path id="&lt;Path&gt;" class="s3" d="m312.5 32.5c-2.1 4-6.6 6.6-11.2 6.7 4.6-0.4 8.8-2.9 11.2-6.7z"/>
		<path id="&lt;Path&gt;" class="s3" d="m300.6 41.1c4.2 0.9 8.2-1.3 11.8-3.2-3.4 2.1-7.7 4.4-11.8 3.2z"/>
		<path id="&lt;Path&gt;" class="s3" d="m299.7 40.7c1.9 3.4 5.8 5.1 9.5 4-3.6 1.4-7.9-0.5-9.5-4z"/>
		<path id="&lt;Path&gt;" class="s3" d="m298.6 39.1c-2.2-3.2-0.6-7.6 1-10.8-1.3 3.3-2.9 7.4-1 10.8z"/>
		<path id="&lt;Path&gt;" class="s3" d="m299.2 39.9c-3.6-0.5-7.3-3.5-6.4-7.4-0.5 3.9 2.9 6.6 6.4 7.4z"/>
		<path id="&lt;Path&gt;" class="s3" d="m298.7 39.1c-1.2-2.5 0.2-5.5 1.4-7.9-0.9 2.5-2.3 5.3-1.4 7.9z"/>
		<path id="&lt;Path&gt;" class="s3" d="m299 39.7c-2.5-0.2-4.2-2.8-3.3-5.1-0.5 2.3 0.9 4.6 3.3 5.1z"/>
		<path id="&lt;Path&gt;" class="s3" d="m300 41.1c2.2 1.7 5.2 1.3 7.8 1.2-2.5 0.4-5.8 0.8-7.8-1.2z"/>
		<path id="&lt;Path&gt;" class="s3" d="m299.7 40.6c-0.4 2.4 1.1 4.6 3.6 4.9-2.6 0-4.3-2.5-3.6-4.9z"/>
		<path id="&lt;Path&gt;" class="s3" d="m299.1 40.8c-3.8 4-6.7 9.4-5.2 15-1.9-5.4 1.3-11.4 5.2-15z"/>
		<path id="&lt;Path&gt;" class="s3" d="m294 55.7c0 0-3.8 7.9 0.3 10.7 0 0 1.8-0.7 1.8-1.9 0 0 1.4-5-2.1-8.8z"/>
		<path id="&lt;Path&gt;" class="s14" d="m294 55.7c0 0-3.8 7.9 0.3 10.7 0 0 1.8-0.7 1.8-1.9 0 0 1.4-5-2.1-8.8z"/>
		<path id="&lt;Path&gt;" class="s3" d="m226 35c2.2 2.8 3 7 1.4 10.3 1.3-3.4 0.6-7.3-1.4-10.3z"/>
		<path id="&lt;Path&gt;" class="s3" d="m228.6 46.6c2.2-2.5 1.8-6.2 1.7-9.2 0.5 3 0.8 6.9-1.7 9.2z"/>
		<path id="&lt;Path&gt;" class="s3" d="m228 47.1c3 0.1 6.1-1.6 6.5-4.8-0.1 3.3-3.5 5.2-6.5 4.8z"/>
		<path id="&lt;Path&gt;" class="s3" d="m226.3 47.1c-3.4 0.2-6.2-2.7-8.3-5.2 2.3 2.3 4.9 5 8.3 5.2z"/>
		<path id="&lt;Path&gt;" class="s3" d="m227.1 47c-1.9 2.5-5.7 3.3-8.2 1.2 2.7 1.8 6.1 1.1 8.2-1.2z"/>
		<path id="&lt;Path&gt;" class="s3" d="m226.3 47.1c-2.4-0.3-4.2-2.5-5.7-4.3 1.6 1.7 3.3 3.8 5.7 4.3z"/>
		<path id="&lt;Path&gt;" class="s3" d="m226.9 47.1c-1.3 1.7-3.8 1.5-5.3 0.1 1.6 1.2 3.9 1.5 5.3-0.1z"/>
		<path id="&lt;Path&gt;" class="s3" d="m228.4 47c2-0.6 2.9-2.9 3.8-4.7-0.7 1.8-1.7 4.2-3.8 4.7z"/>
		<path id="&lt;Path&gt;" class="s3" d="m227.9 47c1.6 1.1 3.9 1.4 5.2-0.3-1.1 1.8-3.7 1.6-5.2 0.3z"/>
		<path id="&lt;Path&gt;" class="s3" d="m227.9 47.5c1.9 4.5 5.2 8.4 10 9.8-4.8-1-8.5-5.4-10-9.8z"/>
		<path id="&lt;Path&gt;" class="s3" d="m237.9 57.2c0 0 4.9 5.8 8.6 4.2 0 0 0.1-1.5-0.9-2 0 0-3.5-3-7.7-2.2z"/>
		<path id="&lt;Path&gt;" class="s3" d="m54.3 150.1c2.4 2.7 3.2 7.1 1.3 10.3 1.2-3.5 0.5-7.2-1.3-10.3z"/>
		<path id="&lt;Path&gt;" class="s3" d="m56.9 161.7c2.1-2.5 1.7-6.2 1.7-9.2 0.6 3 0.9 7-1.7 9.2z"/>
		<path id="&lt;Path&gt;" class="s3" d="m56.3 162.2c2.9-0.1 5.9-1.7 6.5-4.8 0.1 3.3-3.5 5.4-6.5 4.8z"/>
		<path id="&lt;Path&gt;" class="s3" d="m54.6 162.2c-3.5 0.3-6.4-2.6-8.3-5.2 2.4 2.1 5 4.9 8.3 5.2z"/>
		<path id="&lt;Path&gt;" class="s3" d="m55.4 162.1c-1.7 2.7-5.8 3.5-8.2 1.2 2.8 1.6 6 0.9 8.2-1.2z"/>
		<path id="&lt;Path&gt;" class="s3" d="m54.6 162.2c-2.5-0.1-4.4-2.3-5.7-4.3 1.8 1.6 3.4 3.6 5.7 4.3z"/>
		<path id="&lt;Path&gt;" class="s3" d="m55.2 162.2c-0.9 1.6-3.4 1.8-4.7 0.6l-0.6-0.5c1.7 1 3.7 1.3 5.3-0.1z"/>
		<path id="&lt;Path&gt;" class="s3" d="m56.7 162.1c1.9-0.9 2.7-3 3.8-4.7-0.5 1.9-1.6 4.5-3.8 4.7z"/>
		<path id="&lt;Path&gt;" class="s3" d="m56.2 162.1c1.7 0.9 3.8 1.2 5.2-0.3-1 2-3.9 1.8-5.2 0.3z"/>
		<path id="&lt;Path&gt;" class="s3" d="m56.2 162.6c1.2 2.1 2.1 4.4 3.9 6 1.7 1.7 3.9 2.8 6.1 3.8-2.5-0.3-4.7-1.7-6.3-3.6-1.5-1.9-3.4-3.8-3.7-6.2z"/>
		<path id="&lt;Path&gt;" class="s3" d="m66.2 172.3c0 0 4.9 5.8 8.6 4.2 0 0 0.1-1.5-0.9-2 0 0-3.5-3-7.7-2.2z"/>
		<path id="&lt;Path&gt;" class="s13" d="m66.2 172.3c0 0 4.9 5.8 8.6 4.2 0 0 0.1-1.5-0.9-2 0 0-3.5-3-7.7-2.2z"/>
		<path id="&lt;Path&gt;" class="s9" d="m32.1 212.7c2.2-3.1 2.7-7.3 1.2-10.8l-0.7-1.5c2.4 3.7 2.5 8.9-0.5 12.3z"/>
		<path id="&lt;Path&gt;" class="s9" d="m34.1 199.1c3 2.3 3.6 6.4 3.6 9.9l-0.2 1.5c0-3.9-0.4-8.5-3.4-11.4z"/>
		<path id="&lt;Path&gt;" class="s9" d="m33.2 198.4c4.1 0 8.6 2.5 9.4 6.8-1.2-4.1-5.3-6.3-9.4-6.8z"/>
		<path id="&lt;Path&gt;" class="s9" d="m31 198.1c-4.1-0.4-7.6 2.3-10.4 4.9l1-1.1c2.5-2.3 5.9-4.6 9.4-3.8z"/>
		<path id="&lt;Path&gt;" class="s9" d="m32.1 198.3c-2.9-2.7-7.2-4.6-11.1-2.8 3.7-2.2 8.5-0.2 11.1 2.8z"/>
		<path id="&lt;Path&gt;" class="s9" d="m31.1 198.1c-2.9 0.2-5.2 2.4-7.2 4.3 1.8-2.1 4.3-4.4 7.2-4.3z"/>
		<path id="&lt;Path&gt;" class="s9" d="m31.8 198.2c-1.9-1.9-4.8-2.4-7-0.9 2.1-1.7 5.3-1.2 7 0.9z"/>
		<path id="&lt;Path&gt;" class="s9" d="m33.8 198.6c2.9 0.8 4.5 3.8 5.7 6.3-1.4-2.4-2.9-5.3-5.7-6.3z"/>
		<path id="&lt;Path&gt;" class="s9" d="m33.1 198.4c2.3-1.5 5.5-0.9 7 1.3-1.7-2-4.6-2.5-7-1.3z"/>
		<path id="&lt;Path&gt;" class="s9" d="m33 197.8c1.6-5.2 6.5-10.2 12.2-10.2-5.8 0.7-10.2 5-12.2 10.2z"/>
		<path id="&lt;Path&gt;" class="s9" d="m45.1 187.7c0 0 6-6.2 11.1-3.8 0 0 0.3 1.9-1 2.3 0 0-4.3 3.2-10.1 1.5z"/>
		<path id="&lt;Path&gt;" class="s11" d="m98.2 58c0 0 2.7 9.9 9 10.8 0 0 1.5-4.4-9-10.8z"/>
		<path id="&lt;Path&gt;" class="s11" d="m101 61.4c-3.1-3.2-5.5-7-8-10.7-2.2-3.8-4.7-7.7-5.2-12.2 2.1 8.5 7.9 16.1 13.2 22.9z"/>
		<path id="&lt;Path&gt;" class="s11" d="m71.9 39c4.5 2.6 10.5 2.6 14.9 0 4.5-2.7 7.2-7.6 9.2-12.3-1.6 5-4.3 10.1-8.9 12.9-4.6 2.7-10.8 2.5-15.2-0.6z"/>
		<path id="&lt;Path&gt;" class="s11" d="m76.4 43.5c9.8 0.1 16.1-9 18.8-17.5-2.2 8.7-8.9 18.1-18.8 17.5z"/>
		<path id="&lt;Path&gt;" class="s11" d="m96.2 34.1c-6 7.4-15.5 5.9-22.1 0.1 6.9 5.4 15.7 6.9 22.1-0.1z"/>
		<path id="&lt;Path&gt;" class="s11" d="m86.7 39.5c5.5-4.9 7.5-12.6 5.9-19.7-0.2-1-0.4-2-0.7-3 0.3 1 0.6 2 0.9 3 1.7 7.1-0.2 15.1-6.1 19.7z"/>
		<path id="&lt;Path&gt;" class="s3" d="m233.5 353.2c0.6-0.5-8.4 10.1-15.8 9.2l-3.9 9.3 22.8 9c0 0-23.9-8.5-3.1-27.5z"/>
		<path id="&lt;Path&gt;" class="s3" d="m14.8 282c-0.2-7 5.1-13 11.7-14.7l-2.3 1c-5.3 2.4-8.9 7.9-9.4 13.7z"/>
		<path id="&lt;Path&gt;" class="s3" d="m26 264.2c-6.4 0.2-11.5 5-15.6 9.6 0 0 1.5-1.9 1.5-1.9 3.5-4.1 8.4-8.2 14.1-7.7z"/>
		<path id="&lt;Path&gt;" class="s3" d="m27.8 264.3c-5.2-3.6-12.4-5.5-18.1-2 5.4-4.1 13.2-2.2 18.1 2z"/>
		<path id="&lt;Path&gt;" class="s3" d="m30.8 266.3c5 2.8 6.8 8.9 7.4 14.3l0.2 2.3c-0.9-6-2.4-12.8-7.6-16.6z"/>
		<path id="&lt;Path&gt;" class="s3" d="m29.2 265.4c6.4-0.7 14 2 16.2 8.5-2.8-6.2-9.8-8.6-16.2-8.5z"/>
		<path id="&lt;Path&gt;" class="s3" d="m30.7 266.3c3.5 2.9 4.2 8.1 4.3 12.4-0.5-4.3-1-9.2-4.3-12.4z"/>
		<path id="&lt;Path&gt;" class="s3" d="m29.8 265.6c4.1-0.6 8.4 2.1 9.3 6.3-1.3-4-5.2-6.5-9.3-6.3z"/>
		<path id="&lt;Path&gt;" class="s3" d="m26.9 263.9c-4.3-1.6-8.9 0-13.1 1.3 4-1.7 9-3.3 13.1-1.3z"/>
		<path id="&lt;Path&gt;" class="s3" d="m27.9 264.4c-1.6-3.8-5.5-6.3-9.6-5.8 4.1-0.9 8.4 1.8 9.6 5.8z"/>
		<path id="&lt;Path&gt;" class="s3" d="m29.4 265.1c-4.5-4.8 4.9-20.3 9.8-22.9-5.1 4.6-13.3 16-9.8 22.9z"/>
		<path id="&lt;Path&gt;" class="s3" d="m39.6 242c0 0 7.2-2.7 11.2-8.9 0 0-0.2-1.2-1.5-0.1 0 0-4.8 2.6-9.7 9z"/>
		<path id="&lt;Path&gt;" class="s4" d="m39.6 242c0 0 7.2-2.7 11.2-8.9 0 0-0.2-1.2-1.5-0.1 0 0-4.8 2.6-9.7 9 0 0 4.9-6.4 0 0z"/>
		<path id="&lt;Path&gt;" class="s1" d="m277 195.3c0 0-26.2-2.9-47.4 10.7 0 0-16.9 8.7-5.9 44.6l1.3 2.1 3.9-9c0 0-8-21.8 10-33.5 0.9 0.8 14.3-7.9 26.5-7.2z"/>
		<path id="&lt;Path&gt;" class="s15" d="m142.1 264c0 0-5.7 4.8-2.1 9.9 0 0 4 12.5 14.1 11 0 0 9.3 19.6 27.6 3.4 0 0 12.3-6.7 5.9-25 0 0 5.2 0.6-2.5-12.9 0 0-1.5-4.4-3.2-5.3 0 0-5.9-11.8-12.2-11.4 0 0-9.8 4.9-13.3 2.9 0 0-13.4 7.8-14.5 20.2 0 0-2.6 4.5 0.2 7.2z"/>
		<path id="&lt;Path&gt;" class="s16" d="m159.3 289.5c0 0-1.8 14 13 13.2 0 0 2.3-2.6 5-1.9 0 0 2.6 1.5 6.4-4.5 0 0 3.5 0.3 4.7-3.1 0 0 2.8 0.2 3.5-2.7 0 0 6.5-2.6 3.5-13.9 0 0-2.8-4.6-2.2-5.5l-3-3.9c0 0-0.3-3.5-4.4-2.5 0 0 1.4 6.5-5.3 10.4 0 0-6.4 1.5-9.5-5.9 0 0-3.1-4.2-5.2-3.1 0 0-3.4 5.3-0.7 16.4 0 0 0 4.4-5.8 7z"/>
		<path id="&lt;Path&gt;" class="s16" d="m158.6 289.4c0 0-1.3 2.1-8.3 3.1 0 0-2.1-1-2.3-1.6 0 0-2.6 1.3-2.3-0.2 0 0-2.7-1-2.2-2.4 0 0-2.9-2.5-1.8-3.8 0 0-3.3-0.8-2.4-4 0 0-5.3-5.7 1.5-12.7 0 0 3.9-5.9 5.6-5.7 0 0 4.6-1.7 4.5-2.5 0 0 1.8-0.6 2.7 2.1l4.4 1c0 0 1 0.2 1.3 2.4 0 0 2.7-1.9 3.3-0.3 0 0 2.6 1.3 1.5 3 0 0-0.2 12.5 0.9 15.4 0 0-0.5 4.2-6.4 6.2z"/>
		<path id="&lt;Path&gt;" class="s16" d="m142.7 264.1c0 0-8.5-4.1-6.6-11.3 0 0-0.5-5.3 1.8-6.6 0 0-0.5-3.9 2.6-4.3l1.7-2c0 0 10.9-3 10.3-5.5 0 0 2.3-2.1 3.5-0.1 0 0 4 0 5.5-0.6 0 0 1.1-0.9 3.1-1.1 0 0 3.9-0.6 3.8-1.6 0 0 6.7 0.6 7.2 6.9 0 0 2.7 4.5 1.4 6.2-1.4 1.6-9.8-10.7-15.6-3.6 0 0-4.7 4.8 3.8 18.8"/>
		<path id="&lt;Path&gt;" class="s16" d="m165.1 266.2q0.9-0.4 1.8-0.7 0.3-0.1 0.6-0.3c0.8-0.4 1.3-1.3 1.3-2.2 0-0.9-0.4-1.9-1.1-2.4-0.2-0.2-0.5-0.5-0.5-0.8-1 0-2.1 0.6-2.7 1.6-0.5 0.7-1.1 5.4 0.6 4.8z"/>
		<path id="&lt;Path&gt;" class="s16" d="m177.8 273.1c0.9 0.3 1.8 0.2 2.7 0.1 0.8-0.1 1.5-0.3 2.1-0.8 1-0.9 1.1-2.6 2.1-3.4 0.3-0.3 0.7-0.5 1-0.8 0.8-0.9 0.7-10 0.2-13.3-0.1-0.7-0.2-1.3-0.7-1.8-0.2-0.3-0.6-0.4-0.8-0.7-0.3-0.4-0.4-0.8-0.6-1.2-0.5-1.6-1.3-3.2-2.7-4-0.9-0.4-1.9-0.4-2.8-0.8-1.3-0.5-2.2-1.7-3.4-2.4-0.5-0.3-1.1-0.5-1.6-0.7q-1-0.4-1.9-0.8c-0.5-0.2-0.9-0.4-1.4-0.4-1.5-0.2-2.9 1-3.5 2.5-0.6 1.5-0.6 3.3-0.4 5 0.3 2.6 0.9 5.2 1.9 7.7 0.4 1 0.8 2.1 1.1 3.2 0.2 1 0.3 2 0.5 2.9 0.5 2.2 2.7 3.6 3.9 5.3 1.2 1.7 2.3 3.7 4.3 4.4z"/>
		<path id="&lt;Path&gt;" class="s13" d="m165.8 265q-0.1 0-0.1-0.1c-0.1 0-0.6 1.5-0.3 1.8q0.1 0 0.1 0.1c0.1 0 0.7-1.5 0.3-1.8z"/>
		<path id="&lt;Path&gt;" class="s13" d="m166.4 265.3q0 0.1 0 0.2c0.1 0.4 0.4 0.8 0.7 1 0.3 0.1 0.5 0 0.4-0.3v-0.2c-0.1-0.4-0.4-0.8-0.7-1-0.3-0.2-0.5-0.1-0.4 0.3z"/>
		<path id="&lt;Path&gt;" class="s13" d="m166.9 262.9c-0.2-1-1.7-0.8-1.4 0.3 0.2 1 1.6 0.9 1.4-0.3z"/>
		<path id="&lt;Path&gt;" class="s13" d="m165.2 264.5c0-0.3-0.9 0.3-0.9 0.7 0.1 0.3 1-0.4 0.9-0.7z"/>
		<path id="&lt;Path&gt;" class="s13" d="m164.5 261.2l0.1-0.1c0.4-0.2 0.4-1.8 0.2-1.7q-0.1 0-0.2 0.1c-0.3 0.1-0.3 1.7-0.1 1.7z"/>
		<path id="&lt;Path&gt;" class="s13" d="m163.8 260.9q-0.1 0-0.1-0.1c-0.4-0.1-0.3 0.4-0.2 0.6 0.1 0.4 0.4 0.8 0.8 0.9q0 0.1 0.1 0.1c0.4 0.1 0.3-0.4 0.2-0.6-0.1-0.4-0.4-0.7-0.8-0.9z"/>
		<path id="&lt;Path&gt;" class="s13" d="m167 259.7c-0.1-0.4-1.4 0.5-1.3 1 0.1 0.4 1.4-0.6 1.3-1z"/>
		<path id="&lt;Path&gt;" class="s13" d="m167.9 261c-0.1-0.4-1.3 0.5-1.2 1 0.1 0.4 1.3-0.6 1.2-1z"/>
		<path id="&lt;Path&gt;" class="s13" d="m163.6 263q0 0.1-0.1 0.2c-0.2 0.2 0.4 0.5 0.5 0.5 0.4 0.1 0.8 0.1 1-0.2q0.1 0 0.1-0.1c0.3-0.3-0.4-0.5-0.5-0.5-0.3-0.1-0.7-0.1-1 0.1z"/>
		<path id="&lt;Path&gt;" class="s13" d="m167.5 263.6q-0.1 0.1-0.1 0.2c0 0.1 1.4 0.5 1.6 0q0 0 0.1-0.1c0-0.1-1.5-0.5-1.6-0.1z"/>
		<path id="&lt;Path&gt;" class="s13" d="m167.6 262.9q0.1 0 0.2 0.1c0.3 0 0.8-0.2 1-0.5 0.2-0.2 0.1-0.4-0.2-0.5q-0.1 0-0.2 0c-0.3 0-0.8 0.1-1 0.4-0.2 0.3-0.1 0.5 0.2 0.5z"/>
		<path id="&lt;Path&gt;" class="s13" d="m167.1 264.4c-0.2 0.1 0.6 0.9 0.9 0.8 0.2-0.1-0.6-1-0.9-0.8z"/>
		<path id="&lt;Path&gt;" class="s16" d="m283.8 131.6c0 0-2.2-4.2-5.7-2.6 0 0-8 0.8-8.4 7.4 0 0-13 3.2-5.6 16.9 0 0 2.5 8.7 14.3 7.1 0 0-1 3.2 8.1 0.2 0 0 2.8-0.4 3.5-1.3 0 0 7.9-2.1 8.5-6.2 0 0-1.7-6.8 0-8.7 0 0-3-9.6-10.4-11.9 0 0-2.3-2.2-4.3-0.9z"/>
		<path id="&lt;Path&gt;" class="s15" d="m214.5 206.1c0 0-12.2-4.6-14.4 9.5 0 0 2 2.7 0.8 5.1 0 0-1.9 2.2 2.8 6.9 0 0-1 3.3 1.9 5.1 0 0-0.7 2.6 1.7 3.8 0 0 1.1 6.7 11.8 6.1 0 0 4.7-1.6 5.4-0.9l4.1-2.1c0 0 3.2 0.4 3.1-3.6 0 0-6.2 0-8.3-7.1 0 0-0.1-6.3 7.1-7.8 0 0 4.3-2 3.8-4.2 0 0-4.2-4.2-14.6-3.9 0 0-4-1-5.2-6.9z"/>
		<path id="&lt;Compound Path&gt;" fill-rule="evenodd" class="s16" d="m214.5 206.1c0.6 2.8 2.5 5.9 5.1 6.7 5.2-0.2 11.1 0.3 15.1 4 0.3 2.4-2.3 3.8-4.1 4.8-2.6 0.5-5.2 2.1-6.1 4.7-0.4 0.8-0.6 1.7-0.6 2.6 1.1 3.6 4.4 6.6 8.3 6.5 0.2 1.8-0.2 3.9-2 4.6-0.5 0.2-0.9 0.3-1.5 0.3l-4 1.9-0.7-0.1c0.1 0.1 0 0-0.2 0-1.6 0.1-3.1 0.7-4.7 1.1-4.7 0.3-10.8-1.1-12.3-6.3-0.6-0.4-1.2-1-1.5-1.8q-0.5-1-0.3-2.2c-1.6-1.1-2.3-3.2-1.8-5.2-1.7-1.9-4.1-4.6-2.6-7.2 0.6-1 0.2-3.4-0.8-4.7l-0.1-0.1 0.1-0.2c1.1-7.9 7-12.1 14.7-9.4zm0 0c-7.6-2.3-13 1.7-14 9.4 0.2 0.3 1.1 2.2 1.1 2.5 0.2 1 0.1 2.1-0.4 3-0.9 2.3 1.4 4.7 2.9 6.3 0.3 0.2 0.2 0.1 0.1 0.5-0.5 1.8 0.3 3.7 2 4.6-0.5 1.5 0.1 3.2 1.6 3.7l0.1 0.3c1.2 4.7 6.9 5.9 11.2 5.6 0.7-0.4 3.3-1.1 4.7-1.1 0.2 0 0.4 0 0.7 0.1l3.8-1.9c0.3-0.2 0.7 0.1 1.4-0.2 1-0.4 1.3-1.4 1.3-2.3-4-0.5-7.1-3.8-8.2-7.6 0.1-2.1 0.8-4.1 2.3-5.6 1.2-1.5 3.8-2.5 5.2-2.7 1.4-0.7 3.7-1.9 3.6-3.7-3.2-2.6-9.5-4.1-14.2-3.9-3.1-1-4.6-4.1-5.2-7zm-14 9.4q-0.1-0.1 0 0.1 0 0 0-0.1zm24 25.5l-0.3 0.1 0.7 0.1q-0.2-0.2-0.4-0.2zm6.5-4.4q0.3 0 0.7 0l-0.6-0.6q0 0.3-0.1 0.6z"/>
		<path id="&lt;Path&gt;" class="s15" d="m214.9 208.1c0 0-1.9-1.8-1.3-9.7 0 0 1.5-2.1 2.1-2.1 0 0-0.8-3.2 0.8-2.5 0 0 1.6-2.7 2.9-1.8 0 0 3.3-2.6 4.4-1.1 0 0 1.5-3.4 4.7-1.8 0 0 7.1-4.4 12.9 4.7 0 0 5.2 5.7 4.7 7.4 0 0 0.7 5.4 1.5 5.5 0 0 0.2 2.1-2.8 2.5l-2 4.6c0 0-0.4 1-2.8 0.8 0 0 1.4 3.4-0.4 3.7 0 0-1.9 2.5-3.4 1 0 0-13-3.2-16.3-2.7 0 0-4.2-1.5-5-8.5z"/>
		<path id="&lt;Compound Path&gt;" fill-rule="evenodd" class="s16" d="m214.7 205.4c-1.6-2.5-1.4-5.7-1.4-8.5 0.6-0.7 1-1.5 1.7-1.9-0.2-0.9-0.2-2.6 0.9-2.4q0.4-0.6 0.9-1.1c0.5-0.4 1.1-0.7 1.7-0.5 1.1-0.8 2.6-1.8 3.7-1.2 0.4-0.6 1-1.1 1.7-1.4 0.8-0.4 1.7-0.3 2.5 0 2-1.1 4.5-1.2 6.6-0.3 2.2 0.9 3.8 2.7 5.1 4.6 0.9 1.1 2.6 3 3.5 4.6 0.3 0.6 0.7 1.1 0.6 2.1 0.2 1.3 0.4 2.7 0.9 4l0.1 0.2q0 0 0 0.1c0-0.1-0.1-0.2-0.2-0.1l0.5 0.5c0 0.5-0.1 0.8-0.2 1.2-0.5 0.9-1.5 1.4-2.4 1.5l-1.6 3.7c-0.4 0.7-1.3 1-2.2 1 0.3 1.2 0.5 2.7-0.8 3.1-0.4 0.5-0.8 0.9-1.4 1.1-0.7 0.4-1.7 0.2-2.2-0.4-2.1-0.3-7-1.7-10.2-2.1-1.2-0.1-2.4-0.3-3.5-0.2-2.9-1.5-4-4.7-4.3-7.6zm0 0c0.3 2.7 2.1 6.1 4.3 7.1 4.7-0.2 9.9 1 14.4 2.1 0.3 0.3 0.7 0.4 1.1 0.2 0.4-0.2 0.9-0.7 1.2-1.1l0.2-0.1c0.4-0.1 0.3-0.5 0.3-0.9 0-0.7-0.4-1.6-0.7-2.4 0.8 0.1 2.1 0.3 2.7-0.3 0 0 1.7-3.9 1.8-4l0.1-0.3c0.9 0 2-0.3 2.2-1.3q-0.2-0.2-0.3-0.5c-0.5-1.5-0.9-3.1-1-4.7 0-0.1-0.2-0.8-0.5-1.3-0.9-1.6-2.2-3.1-3.5-4.5-1.1-1.7-2.5-3.4-4.4-4.3-2-0.8-4.4-0.6-6.2 0.5-1.4-0.9-2.9-0.4-3.6 1.1l-0.4 0.8-0.4-0.7c-0.8-0.8-2.6 0.5-3.5 1.1-0.8-0.8-1.9 0.9-2.3 1.6-0.1-0.1-0.5-0.3-0.5-0.2-0.1 0.1-0.1 0.3-0.1 0.5-0.1 0.6 0.1 1.3 0.2 1.9l-0.4-0.2c-0.6 0.3-1.2 1.1-1.7 1.6 0 2.1-0.4 6 1 8.3zm23.5 4.6q0 0 0 0 0 0 0 0zm4.1-5.6q0.2 0.3 0.5 0.4l-0.5-0.6q0 0.1 0 0.2z"/>
		<path id="&lt;Path&gt;" class="s15" d="m240.5 195.6c0 0 5.3-7.2 11.4-4 0 0 4.9 0.6 5.5 3.1 0 0 3.6 0.3 3.4 3.2l1.5 2c0 0 0.6 10.9 3 10.8 0 0 1.4 2.7-0.7 3.4 0 0-0.8 3.7-0.4 5.2 0 0 0.5 1.2 0.3 3.2 0 0-0.2 3.8 0.8 3.9 0 0-1.9 6.2-7.7 5.4 0 0-4.5 1.6-5.7 0-1.3-1.6 11.4-7 6.2-13.9 0 0-3.5-5.4-17.6-0.2"/>
		<path id="&lt;Path&gt;" class="s16" d="m240.5 195.6c2.5-3.5 7.2-6.5 11.5-4.2 1.6 0.2 5 0.9 5.8 3.2l-0.4-0.3c2 0.1 4.1 1.5 3.8 3.6v-0.3l1.5 2c0.5 2.9 0.5 6 1.4 8.8 0.2 0.5 0.6 1.7 1.1 1.8l0.4-0.1c0.6 1.1 1.1 2.6 0.3 3.8-0.3 0.4-0.7 0.6-1.1 0.7l0.4-0.4c-0.3 1.4-0.6 4-0.5 4.9 1.1 2.5-0.4 5.5 1.2 7.5-1.2 3.5-4.5 6.4-8.4 5.7h0.3c-0.9 0.3-1.9 0.6-2.9 0.7-1.4 0.4-5-0.4-3.1-2.6 0.7-0.7 2.5-2.2 3.3-2.9 2.7-2.3 5.4-6.1 2.6-9.4-3.1-3.3-8.7-2.5-12.8-1.7-1.5 0.4-2.9 0.8-4.4 1.3 5.8-2.2 16.9-5.5 19.2 2.7 0.7 4.9-4.2 7.8-7.1 10.7-0.1 0.2-0.2 0.4-0.2 0.5 0 0-0.1-0.2 0 0 1.3 0.8 3.7 0.1 5.1-0.4 1.6 0.2 3.3-0.1 4.6-1.1 1.2-1 2.1-2.4 2.6-3.9l0.5 0.8c-0.7-0.1-0.9-0.6-1.1-1.1-0.6-2.1 0.3-4.4-0.5-6.4-0.3-2.1 0.1-3.9 0.5-5.9 1.4-0.3 1.2-1.6 0.7-2.6l0.5 0.3c-1.6-0.2-1.8-1.5-2.2-2.6-0.9-2.9-1.1-5.8-1.3-8.8l0.1 0.3-1.5-2-0.1-0.2c0.3-1.7-1.4-2.8-2.9-3h-0.3c-0.5-2.1-3.4-2.7-5.3-3.1-4.1-2.3-8.7 0.4-11.3 3.7z"/>
		<path id="&lt;Path&gt;" class="s16" d="m234.3 216.2q0.2 0.9 0.3 1.8 0 0.3 0.1 0.7c0.2 0.8 0.9 1.4 1.7 1.6 0.9 0.2 1.8 0 2.5-0.5 0.2-0.2 0.4-0.4 0.7-0.3 0.2-1-0.1-2.1-0.9-2.9-0.5-0.6-4.6-2.1-4.4-0.4z"/>
		<path id="&lt;Compound Path&gt;" fill-rule="evenodd" class="s16" d="m235.9 215.6c1.1 0.4 2.6 0.9 3 2.1q0.2 0.6 0.1 1.2-0.1 0.1-0.2 0.2c-0.8 0.7-1.9 1.1-2.9 0.6-1.4-0.5-1.3-2.3-1.6-3.5-0.1-0.9 1-0.8 1.6-0.6zm4 3.3l-0.9 0.5q0-0.3 0-0.5c0.3-0.1 0.5-0.1 0.9 0zm-4.4 1.4c1.1 0.9 2.9 0.8 4-0.2q0 0 0 0-0.1 0-0.2 0l0.9-0.5c0.3-1.2-0.2-2.5-1.1-3.3-1-0.6-2.1-0.8-3.2-0.9-0.6-0.1-1.7-0.1-1.6 0.8 0.3 1.4-0.1 3.1 1.2 4.1z"/>
		<path id="&lt;Path&gt;" class="s15" d="m223.6 223.7c-0.5 1-0.7 2.2-0.8 3.3 0 1 0 2 0.4 2.8 0.8 1.4 2.6 2 3.4 3.4 0.2 0.5 0.3 1.1 0.6 1.5 0.8 1.1 2.5 1.1 3.8 1.1 3.8 0.3 7.2 2.4 11 2.7 0.8 0 1.5 0 2.2-0.5 0.3-0.2 0.6-0.6 1-0.8 0.4-0.2 0.9-0.3 1.4-0.4 1.9-0.3 4-0.8 5.1-2.3 0.8-0.9 1-2.2 1.6-3.2 0.9-1.4 2.4-2.3 3.5-3.5 0.5-0.6 0.9-1.2 1.2-1.8q0.7-1 1.3-2.1c0.4-0.5 0.7-1 0.9-1.6 0.5-1.8-0.5-3.8-2.1-5-1.5-1.1-3.5-1.5-5.4-1.7-3-0.4-6.1-0.3-9.1 0.2-1.3 0.3-2.5 0.6-3.9 0.6-1.1 0-2.2-0.2-3.3-0.2-2.5 0.1-4.6 2.5-6.9 3.5-2.2 0.9-4.7 1.8-5.9 4z"/>
		<path id="&lt;Compound Path&gt;" fill-rule="evenodd" class="s16" d="m225.7 226.7c0.8-1.4 2.4-2.1 3.8-2.7 2.3-0.8 4-2.9 6.5-3.1 5.6 0.3 11.3-2.4 16.8 0 1.6 0.7 3 2.3 2.9 4.3-0.4 1.9-1.5 2.9-2.5 4.4-0.9 1.5-2.6 2.2-3.3 3.4-0.6 1.4-1.4 3.3-3.2 3.8-1.8 0.7-2.9 0.1-4.4 1.4-3.3 1.1-6.4-1.3-9.5-1.8-1.5-0.4-3.6 0.2-4.5-1.4-0.2-0.4-0.2-0.8-0.5-1.1-0.7-1-1.9-1.4-2.5-2.5-0.6-1.5-0.3-3.3 0.4-4.7zm0 0c-0.6 1.4-0.9 3.2-0.3 4.7 0.6 1 1.9 1.4 2.6 2.4 0.2 0.3 0.3 0.8 0.5 1.1 0.8 1.5 2.9 0.8 4.3 1.1 3 0.3 6.2 2.4 9.1 1.5 1.5-1.7 4.8-0.9 6-3 0.4-0.5 0.6-1.3 1-2.1 1-1.7 2.6-2.2 3.4-3.5 0.7-1.1 2-2.6 2.2-3.8 0.1-1.3-0.9-2.6-2.2-3.2-5.1-2.5-10.9-0.2-16.3-0.8-2.5 0.1-4.2 2.3-6.4 2.9-1.5 0.6-3.1 1.3-3.9 2.7z"/>
		<path id="&lt;Compound Path&gt;" class="s3" d="m235.2 217.1c0.4-0.3-0.9-0.4-1-0.3-0.2 0-0.3 0-0.1 0 0 0-0.1 0-0.1 0 0 0 0 0.1 0 0 0.1 0 0.2-0.3 0.1-0.5-0.1-0.1 0 0-0.1-0.1 0.3 0.3 0.7 1.1 1.2 0.9zm0 0c-0.5 0.2-2.5 0-1.8-0.9 0.5-0.6 1.1-0.2 1.4 0.2 0.1 0.1 0.7 0.6 0.4 0.7z"/>
		<path id="&lt;Compound Path&gt;" fill-rule="evenodd" class="s3" d="m234.8 217.6c0.6-0.1 0.4 0.6 0.1 0.8-0.3 0.5-1 0.7-1.5 0.4-0.9-0.9 0.5-1.4 1.4-1.2-0.2-0.1-0.6 0.2-0.8 0.4 0.4 0.1 0.8 0.1 1.1-0.2 0.1-0.1-0.1-0.2-0.3-0.2q0 0 0 0 0 0 0 0zm-0.9 0.7c0.1 0 0.1 0 0-0.1q0 0.1 0 0.1zm0-0.1q0.1-0.1 0.1-0.2-0.1 0-0.1 0c-0.1 0-0.1 0 0 0.1q0 0 0 0.1z"/>
		<path id="&lt;Compound Path&gt;" fill-rule="evenodd" class="s3" d="m236.9 218.5c-1.3 0.1-1.3-1.8 0-1.8 1.4 0 1.2 1.9 0 1.8zm0 0c0.7 0 0.7-1 0-0.9-0.7-0.1-0.9 0.9 0 0.9z"/>
		<path id="&lt;Compound Path&gt;" fill-rule="evenodd" class="s3" d="m234.9 216.1c-0.2-0.3 0-0.9 0.4-0.9 0.8 0.2 0.6 0.6 0.7 0.8 0 0.3 0 0.6-0.2 0.7 0.2-0.2 0-0.4-0.2-0.5 0 0.2 0 0.4 0.1 0.4-0.3-0.1-0.6-0.3-0.8-0.5zm0.7 0.1q0-0.1 0-0.2-0.1 0.1-0.2 0.2 0.1 0 0.2 0 0 0 0 0zm-0.3 0q0.1 0 0.1 0c-0.1-0.1-0.3-0.1-0.1 0zm0.4-0.4q-0.1 0-0.1 0.2 0.1-0.1 0.1-0.2zm0.1 0.9q0 0-0.1-0.1 0.1 0.1 0.1 0.1z"/>
		<path id="&lt;Compound Path&gt;" fill-rule="evenodd" class="s3" d="m240.8 216.8c0.2 0.4 0.2 0.7-0.2 0.9-0.4 0.2-0.8-0.1-1.1-0.3-0.2-0.2-0.6-0.4-0.6-0.8 0.1 0.4 0.5 0.4 0.9 0.3-0.2-0.1-0.5-0.3-0.7-0.3 0.5-0.1 1.2-0.2 1.7 0.2zm-0.5 0.1q0 0 0 0 0 0 0 0zm-0.3 0.4q0 0 0-0.1 0 0.1 0 0.1zm0 0q0 0 0-0.1 0 0 0 0 0 0 0 0.1zm0-0.1c0-0.1 0.2-0.3 0.3-0.3-0.2 0-0.3 0-0.5 0q0.1 0.2 0.2 0.3zm0 0q0 0 0 0 0 0 0 0zm-1.1-0.6q0.1 0 0.2 0-0.1 0-0.2 0z"/>
		<path id="&lt;Compound Path&gt;" fill-rule="evenodd" class="s3" d="m239.3 216.1c-0.5 0.8-2 1.4-1.9 0.2 0.2-0.7 0.7-0.9 1.3-0.9 0.4 0 1 0.3 0.6 0.7zm0 0c0.1-0.2 0.2-0.4-0.1-0.4-0.3 0-0.7 0.4-0.8 0.7 0.3 0 0.7-0.1 0.9-0.3zm-0.9 0.3q-0.1 0-0.2-0.1c0.1 0.2-0.1 0.4 0.1 0.2q0-0.1 0.1-0.1zm-0.3-0.2c0 0 0 0 0 0q0 0.1 0.1 0.1 0 0-0.1-0.1z"/>
		<path id="&lt;Compound Path&gt;" class="s3" d="m239.8 219.3c0.3-0.2-0.1-0.6-0.3-0.7-0.2-0.2-0.6-0.3-0.4-0.2q0.2 0 0.3-0.2c0.1 0 0-0.1 0-0.1-0.1 0.3-0.1 1.1 0.4 1.2zm0 0c-0.6-0.2-1.5-0.9-1.1-1.6 0.1-0.2 0.2-0.2 0.4-0.2 0.8 0.1 0.7 0.6 0.8 0.9 0 0.2 0.1 0.8-0.1 0.9z"/>
		<path id="&lt;Compound Path&gt;" class="s3" d="m238.4 219.9c0.3-0.2-0.1-0.5-0.2-0.6-0.2-0.2-0.6-0.3-0.4-0.3q0.1 0 0.2-0.1c0.1-0.1 0.1-0.1 0.1-0.1-0.1 0.3-0.1 1 0.3 1.1zm0 0c-0.5-0.2-1.5-0.8-1.1-1.5 0.1-0.2 0.3-0.3 0.5-0.3 0.8 0.2 0.7 0.6 0.8 1 0 0.2 0.1 0.8-0.2 0.8z"/>
		<path id="&lt;Compound Path&gt;" class="s3" d="m237.4 215.4c-0.4-0.6-0.6 0.8-0.3 1 0 0.1 0.2 0.2-0.1 0-0.2 0-0.2 0.1-0.2 0.1 0.4-0.1 0.9-0.6 0.6-1.1zm0 0c0.6 0.8-0.1 2.7-1.1 1.5-0.4-0.8 0.1-1.3 0.7-1.6 0.2-0.2 0.3-0.1 0.4 0.1z"/>
		<path id="&lt;Compound Path&gt;" class="s3" d="m236.1 218.9c-0.3-0.2-0.2 0.9-0.1 1.1 0 0.1 0.1 0.1-0.1 0 0 0 0.1 0 0.1 0.1-0.1-0.2-0.4-0.1-0.5 0q0 0 0 0c0.2-0.3 0.9-0.7 0.6-1.2zm0 0c0.3 0.4 0.4 1.5 0 1.9-0.1 0.1-0.4 0.1-0.6 0-0.5-0.3-0.4-0.8-0.3-0.9 0.1-0.4 0.3-0.6 0.6-0.8 0.1-0.2 0.2-0.3 0.3-0.2z"/>
		<path id="&lt;Compound Path&gt;" fill-rule="evenodd" class="s3" d="m236.7 219.2c0.1-0.5 0.7-0.2 0.9 0.1 0.4 0.5 0.4 1.2-0.1 1.6-1.1 0.5-1.1-1.1-0.8-1.7zm0 0c-0.1 0.3 0 0.7 0.3 0.9 0.1-0.3 0.3-0.7 0.1-1-0.1-0.2-0.3 0-0.4 0.1zm0.5 1c0 0-0.1-0.1-0.2 0q0.1 0 0.2 0zm-0.2 0q0-0.1 0-0.1-0.1 0.1-0.1 0.1c0 0 0 0 0.1 0q0 0 0 0z"/>
		<path id="&lt;Path&gt;" class="s3" d="m235.5 218.5c-0.1 0-0.3 0.5-0.4 0.6-0.1 0.1 0 0.2 0-0.1-0.1-0.1-0.2-0.2-0.3-0.3-0.1 0-0.1 0-0.1 0 0 0 0.2 0 0.3 0 0.2-0.1 0.4-0.1 0.5-0.2 0.3 0.5-0.2 1-0.7 1.1-0.2 0.1-0.6-0.1-0.6-0.4-0.1-0.5 0.1-0.5 0.2-0.7 0.2-0.2 1.1-0.4 1.1 0z"/>
		<path id="&lt;Compound Path&gt;" fill-rule="evenodd" class="s15" d="m270.5 140.1c0.3 1.6 1.1 3.5 2.7 4 2.7-0.1 5.7 0.4 7.8 2.4 0.2 1.4-1.1 2.2-2.1 2.8-2.2 0.4-3.6 2.6-3.6 4.5 0.5 2.1 2.1 4.1 4.4 4.1 0 0.7 0 1.3-0.3 1.9-0.3 0.5-0.9 0.8-1.5 0.8l-2.1 1.2c-0.9-0.3-2 0.3-2.9 0.5-2.6 0.3-5.8-0.9-6.4-3.7-0.8-0.5-1.1-1.5-0.9-2.4-0.9-0.7-1.2-2-1-3.1-0.7-0.9-1.4-1.9-1.6-3-0.1-0.4 0-1 0.2-1.2 0.4-1 0.1-2.1-0.4-3 0.3-4.2 3.2-7.6 7.7-5.8zm0 0c-3.7-1.4-6.5 0.7-7.2 4.3l-0.3 1.4c0.6 0.9 0.9 2.1 0.4 3.2-0.1 0.2-0.2 0.7-0.1 1 0.2 1.1 0.9 2.1 1.6 3 0.1 0 0.1 0 0.1 0.1-0.3 1 0 2.3 0.9 2.9 0.1 0.1 0.1 0 0.1 0.2-0.2 0.8 0.1 1.8 0.9 2.1 0.2 1.3 1.1 2.4 2.2 3 1.1 0.6 2.8 0.6 3.7 0.6 0.8-0.2 2-0.9 2.9-0.6l2.1-1.2h0.1c1 0.1 1.4-0.9 1.4-1.8-2.3-0.2-3.9-2.3-4.4-4.4 0.1-1.2 0.4-2.3 1.1-3.2 0.6-0.9 1.9-1.5 2.8-1.7 0.8-0.5 2-1.3 1.9-2.4-0.7-0.6-2.2-1.5-3.5-1.8-1.3-0.4-2.7-0.5-4-0.5-1.7-0.7-2.4-2.6-2.7-4.2zm-7.5 5.7q0 0 0-0.1v0.1zm12.7 15.5l-0.1 0.1h0.3q-0.1 0-0.2-0.1zm3.6-2.9q0.1 0 0.2 0l-0.2-0.2q0 0.1 0 0.2z"/>
		<path id="&lt;Compound Path&gt;" fill-rule="evenodd" class="s15" d="m270.6 139.6c-0.9-1.5-0.7-3.4-0.7-5.1 0.3-0.4 0.4-0.9 0.9-1.1-0.1-0.4-0.2-0.8 0-1.2 0.1-0.2 0.3-0.2 0.4-0.2 0.2-0.4 0.5-0.8 0.9-1 0.1-0.1 0.3 0 0.5 0 0.5-0.4 1.3-1 1.9-0.6 0.4-0.8 1.4-1.4 2.2-0.9 1.1-0.6 2.5-0.7 3.6-0.1 1 0.5 1.9 1.7 2.4 2.6 0.9 1.2 2.3 2.8 2.2 4 0.1 0.8 0.3 1.7 0.5 2.5 0 0.1 0.2 0.3 0 0.2l0.2 0.2c0.1 0.8-0.6 1.4-1.3 1.5-0.2 0.5-0.8 1.9-0.9 2.2-0.1 0.5-0.7 0.6-1.2 0.6 0.1 0.5 0.2 0.9 0.1 1.4 0 0.2-0.2 0.4-0.4 0.5-0.2 0.3-0.4 0.5-0.7 0.6-0.2 0.1-0.4 0.2-0.6 0.1q-0.3 0-0.5-0.2c-2.3-0.6-4.8-1.4-7.2-1.4-1.5-0.8-2.1-2.6-2.3-4.2 0.2 1.5 1 3.3 2.2 4 2.6-0.1 5.1 0.7 7.5 1.3q0.3 0.3 0.7 0.1c0.4-0.1 0.6-0.6 0.7-0.6 0.6-0.3 0.1-1.5 0-2 0.4 0 1.1 0.1 1.3-0.4 0.1-0.3 0.8-2 0.9-2.3l0.1-0.1c0.3 0 0.7-0.2 0.9-0.4 0.2-0.1 0.3-0.4 0.3-0.6-0.3-0.2-0.2-0.5-0.3-0.7-0.4-1.1-0.2-2.1-0.7-3.2-0.5-1-1.2-1.9-1.8-2.8-1-2.1-3.4-3.9-5.6-2.4-0.1 0-0.1 0-0.2 0-0.9-0.6-1.7 0.2-2 1.1-0.3-1-1.5 0-2 0.4-0.2-0.2-0.5-0.1-0.7 0.1-0.2 0.3-0.4 0.6-0.6 0.8 0 0-0.2-0.1-0.3 0-0.1 0.4 0 0.9 0.1 1.3h-0.2c-0.3 0.1-0.7 0.8-0.8 1-0.1 1.6-0.3 3.5 0.5 5q0 0.2 0 0.4 0-0.2 0-0.4zm14.6-0.6q0 0.1 0.1 0.1l-0.1-0.2q0 0.1 0 0.1z"/>
		<path id="&lt;Path&gt;" class="s15" d="m284.1 133.7c1.3-1.9 3.8-3.9 6.1-2.5 0.9 0.2 2.6 0.6 2.9 1.9l-0.1-0.1c1.1 0.1 2.1 1 1.9 2.1v-0.1l0.8 1.2c0.2 1.8 0.3 3.5 0.7 5.2 0.2 0.5 0.4 1.2 0.7 1.3h0.2c0.2 0.4 0.3 0.8 0.3 1.3 0 0.4-0.3 0.9-0.7 1.1l0.1-0.2c-0.1 1-0.3 2.3-0.2 3.1 0.4 1.3 0 2.6 0.3 3.8 0.1 0.4 0.1 0.3 0.3 0.6-0.3 0.9-0.8 1.8-1.5 2.5-0.7 0.8-2.2 1.1-2.7 0.9-1 0.3-2.5 1-3.3-0.2 0-1.1 1.5-1.8 2.1-2.6 2.3-2.1 2.9-6-0.7-7-2.4-0.6-4.9 0.2-7.2 1.1 2.8-1.2 7-2.7 9.4 0 2.1 3-1 5.9-3 7.9-1.1 1.3 2 0.7 2.6 0.4 1.9 0.4 3.3-1.4 3.8-3.1l0.2 0.3c-0.4-0.2-0.4-0.5-0.5-0.6-0.3-1.3 0.1-2.7-0.3-3.9-0.1-1.2 0.1-2.2 0.3-3.4 0.8-0.2 0.6-1.2 0.4-1.7l0.1 0.1c-0.5-0.1-0.6-0.5-0.7-0.7-0.7-1.8-0.9-4.4-0.9-6l-0.8-1.2-0.1-0.1c0.2-1-0.7-1.7-1.6-1.8-0.1 0-0.1 0-0.1-0.1-0.4-1.2-1.8-1.5-2.9-1.8-2.2-1.4-4.6 0.5-5.9 2.3z"/>
		<path id="&lt;Compound Path&gt;" fill-rule="evenodd" class="s15" d="m276.3 152.5c0.4-0.8 1.3-1.2 2-1.6q0.1 0 0.1 0c-0.8 0.4-1.6 0.9-2.1 1.6-0.3 0.8-0.4 1.8-0.2 2.6 0.2 0.9 1.3 1.2 1.6 2.1 0.2 1 1.3 0.9 2.1 1 1.7 0.1 3.4 1.4 5 0.9 0.9-1 2.6-0.5 3.3-1.8 0.2-0.3 0.3-0.7 0.5-1.2 0.4-0.9 1.3-1.3 1.7-2 0.8-1.3 2.1-3.1 0.4-4.4-2.2-1.4-5.1-0.8-7.6-0.5-0.8 0-1.8-0.3-2.5 0.3-0.4 0.4-1 0.7-1.5 1 0.9-0.6 1.6-1.4 2.7-1.5 2.2 0.2 4.4-0.8 6.6-0.4 1.8 0 4.1 1.2 3.6 3.4-0.4 0.9-0.8 1.6-1.3 2.4-0.5 0.8-1.4 1.2-1.7 1.9-0.3 0.8-0.7 1.9-1.6 2.2-0.9 0.4-1.7 0.2-2.4 0.9-0.9 0.4-1.8 0-2.7-0.3-1.2-0.5-2.5-0.8-3.8-0.9-0.5-0.1-0.8-0.6-0.9-1-0.2-0.9-1.3-1.2-1.5-2.1-0.2-0.8-0.1-1.8 0.2-2.6zm2.1-1.6q0.3-0.2 0.7-0.4-0.4 0.2-0.7 0.4z"/>
		<path id="&lt;Path&gt;" class="s13" d="m285.2 146q0 0 0 0.1c0 0.1 1.6-0.1 1.6-0.5q0.1-0.1 0.1-0.2c0-0.1-1.6 0.1-1.7 0.6z"/>
		<path id="&lt;Path&gt;" class="s13" d="m285.2 145.3q0.1 0 0.1-0.1c0.3-0.2 0.6-0.7 0.6-1.1 0-0.3-0.2-0.4-0.5-0.2q0 0.1-0.1 0.1c-0.3 0.3-0.6 0.8-0.6 1.1 0 0.4 0.2 0.4 0.5 0.2z"/>
		<path id="&lt;Path&gt;" class="s13" d="m282.9 146c-0.8 0.6 0 1.8 0.9 1.1 0.8-0.7 0-1.9-0.9-1.1z"/>
		<path id="&lt;Path&gt;" class="s13" d="m285 146.7c-0.3 0.2 0.8 0.7 1 0.5 0.3-0.2-0.8-0.7-1-0.5z"/>
		<path id="&lt;Path&gt;" class="s13" d="m282.4 148.9q-0.1 0-0.1-0.1c-0.3-0.2-1.8 0.5-1.6 0.7q0 0 0.1 0.1c0.3 0.2 1.7-0.6 1.6-0.7z"/>
		<path id="&lt;Path&gt;" class="s13" d="m282.5 149.6q0 0.1 0 0.2c0 0.3 0.4 0 0.6-0.1 0.3-0.3 0.4-0.8 0.4-1.1q0-0.1 0-0.2c0-0.4-0.5-0.1-0.6 0.1-0.3 0.3-0.5 0.7-0.4 1.1z"/>
		<path id="&lt;Path&gt;" class="s13" d="m279.9 147.4c-0.3 0.3 1.1 0.9 1.5 0.6 0.3-0.3-1.1-0.9-1.5-0.6z"/>
		<path id="&lt;Path&gt;" class="s13" d="m280.6 145.9c-0.3 0.3 1.1 0.9 1.5 0.6 0.3-0.2-1.1-0.9-1.5-0.6z"/>
		<path id="&lt;Path&gt;" class="s13" d="m284.5 148.8q0 0 0.1 0.1c0.4 0.1 0.3-0.6 0.3-0.8-0.1-0.3-0.3-0.7-0.7-0.8q0 0-0.1 0c-0.4-0.1-0.3 0.6-0.2 0.7 0 0.4 0.2 0.7 0.6 0.8z"/>
		<path id="&lt;Path&gt;" class="s13" d="m283.2 145.1q0.1 0 0.2 0c0.1 0-0.2-1.5-0.7-1.4q-0.1 0-0.2 0c-0.1 0 0.3 1.5 0.7 1.4z"/>
		<path id="&lt;Path&gt;" class="s13" d="m282.5 145.3v-0.1c-0.1-0.4-0.5-0.7-0.9-0.8-0.3 0-0.5 0.1-0.3 0.4q0 0.1 0 0.2c0.1 0.3 0.5 0.7 0.9 0.7 0.3 0.1 0.5-0.1 0.3-0.4z"/>
		<path id="&lt;Path&gt;" class="s13" d="m284 145.1c0.2 0.2 0.6-1 0.4-1.2-0.2-0.1-0.6 1-0.4 1.2z"/>
		<path id="&lt;Path&gt;" class="s15" d="m314.9 193.3c0 0 3-6-1.8-8.7 0 0-7.7-8.4-15.5-3.3 0 0-14.6-12.1-24.1 7.8 0 0-7.8 10.2 3.9 22.2 0 0-4.5 1.6 6.6 9.4 0 0 2.8 3 4.5 3 0 0 9 7.1 14.1 4.4 0 0 6.4-7.7 10-7.4 0 0 8.4-11.4 5-21.8 0 0 0.5-4.5-2.7-5.6z"/>
		<path id="&lt;Path&gt;" class="s17" d="m314.9 193.3c0 0 3-6-1.8-8.7 0 0-7.7-8.4-15.5-3.3 0 0-14.6-12.1-24.1 7.8 0 0-7.8 10.2 3.9 22.2 0 0-4.5 1.6 6.6 9.4 0 0 2.8 3 4.5 3 0 0 9 7.1 14.1 4.4 0 0 6.4-7.7 10-7.4 0 0 8.4-11.4 5-21.8 0 0 0.5-4.5-2.7-5.6z"/>
		<path id="&lt;Path&gt;" class="s16" d="m294.1 184.4c0 0-2.3-9.5-12.5-4 0 0-1 2.5-3.1 3 0 0-2.2-0.1-3.3 5 0 0-2.6 1-2.5 3.5 0 0-2 0.9-1.8 3 0 0-3.9 3.8 1.2 9.9 0 0 3.1 2 3 2.8l3.1 1.4c0 0 1.1 2.1 3.7 0.1 0 0-2.6-3.6 1.1-8.4 0 0 4.1-3.1 8.2 0.5 0 0 3.3 1.6 4.5 0.2 0 0 1-4.6-3.8-10.7 0 0-1.2-2.7 2.2-6.3z"/>
		<path id="&lt;Path&gt;" class="s18" d="m294.1 184.4c0 0-2.3-9.5-12.5-4 0 0-1 2.5-3.1 3 0 0-2.2-0.1-3.3 5 0 0-2.6 1-2.5 3.5 0 0-2 0.9-1.8 3 0 0-3.9 3.8 1.2 9.9 0 0 3.1 2 3 2.8l3.1 1.4c0 0 1.1 2.1 3.7 0.1 0 0-2.6-3.6 1.1-8.4 0 0 4.1-3.1 8.2 0.5 0 0 3.3 1.6 4.5 0.2 0 0 1-4.6-3.8-10.7 0 0-1.2-2.7 2.2-6.3z"/>
		<path id="&lt;Path&gt;" class="s16" d="m294.7 184.1c0 0 0.4-1.7 5-4.8 0 0 1.8-0.1 2 0.3 0 0 1.5-1.7 1.7-0.7 0 0 2.2-0.3 2.2 0.7 0 0 2.7 0.6 2.2 1.9 0 0 2.6-0.7 2.8 1.6 0 0 5.2 1.8 2.2 8.6 0 0-1.2 5-2.4 5.5 0 0-2.8 2.7-2.5 3.1 0 0-1.1 1-2.5-0.4l-3.4 0.9c0 0-0.7 0.2-1.5-1.1 0 0-1.4 2.1-2.3 1.4 0 0-2.1 0-1.8-1.4 0 0-3.1-8-4.7-9.4 0 0-0.6-2.9 3-6.2z"/>
		<path id="&lt;Path&gt;" class="s18" d="m294.7 184.1c0 0 0.4-1.7 5-4.8 0 0 1.8-0.1 2 0.3 0 0 1.5-1.7 1.7-0.7 0 0 2.2-0.3 2.2 0.7 0 0 2.7 0.6 2.2 1.9 0 0 2.6-0.7 2.8 1.6 0 0 5.2 1.8 2.2 8.6 0 0-1.2 5-2.4 5.5 0 0-2.8 2.7-2.5 3.1 0 0-1.1 1-2.5-0.4l-3.4 0.9c0 0-0.7 0.2-1.5-1.1 0 0-1.4 2.1-2.3 1.4 0 0-2.1 0-1.8-1.4 0 0-3.1-8-4.7-9.4 0 0-0.6-2.9 3-6.2z"/>
		<path id="&lt;Path&gt;" class="s16" d="m312.5 194.7c0 0 7-0.3 7.6 4.9 0 0 1.7 3.2 0.4 4.7 0 0 1.4 2.3-0.7 3.6l-0.6 1.9c0 0-7 5.6-5.8 7 0 0-1.2 2.1-2.5 1.2 0 0-2.8 1.4-3.7 2.3 0 0-0.6 1-1.9 1.8 0 0-2.6 1.7-2.3 2.3 0 0-4.9 1.9-6.9-1.9 0 0-3-1.9-2.5-3.4 0.5-1.5 9.6 3.4 11.9-3.1 0 0 2-4.7-7.6-10.5"/>
		<path id="&lt;Path&gt;" class="s18" d="m312.5 194.7c0 0 7-0.3 7.6 4.9 0 0 1.7 3.2 0.4 4.7 0 0 1.4 2.3-0.7 3.6l-0.6 1.9c0 0-7 5.6-5.8 7 0 0-1.2 2.1-2.5 1.2 0 0-2.8 1.4-3.7 2.3 0 0-0.6 1-1.9 1.8 0 0-2.6 1.7-2.3 2.3 0 0-4.9 1.9-6.9-1.9 0 0-3-1.9-2.5-3.4 0.5-1.5 9.6 3.4 11.9-3.1 0 0 2-4.7-7.6-10.5"/>
		<path id="&lt;Path&gt;" class="s16" d="m285.4 201c-0.7 0.2-1.3 0.5-2 0.9-0.4 0.3-0.9 0.7-1.2 1.2-0.5 0.9-0.1 2-0.6 2.9-0.1 0.3-0.4 0.6-0.5 0.9-0.3 0.8 0.3 1.5 0.8 2.2 1.2 1.9 1.3 4.3 2.5 6.2 0.3 0.4 0.6 0.8 1 0.9 0.2 0.1 0.5 0.1 0.8 0.2 0.3 0.1 0.5 0.3 0.7 0.5 0.8 0.8 1.8 1.6 2.9 1.6 0.8 0 1.5-0.4 2.2-0.5 1-0.1 2 0.3 3 0.4 0.5 0 0.9 0 1.4-0.1q0.7-0.1 1.5-0.1c0.4-0.1 0.7-0.1 1.1-0.2 1.1-0.5 1.8-1.7 1.8-2.9 0-1.1-0.4-2.2-1-3.3-0.9-1.5-2-2.9-3.3-4.2-0.6-0.5-1.2-1-1.7-1.6-0.4-0.5-0.7-1.1-1.1-1.7-0.9-1.1-2.9-1.3-4.2-2-1.2-0.6-2.5-1.5-4.1-1.3z"/>
		<path id="&lt;Path&gt;" class="s19" d="m301.6 208.2q-0.2 0.1-0.3 0.1c-0.1 0.1 1.6 1.9 2.3 1.6q0.1-0.1 0.2-0.1c0.1-0.1-1.6-1.9-2.2-1.6z"/>
		<path id="&lt;Path&gt;" class="s19" d="m302.4 207.6q0.1 0 0.2 0.1c0.6 0.1 1.5 0 1.9-0.3 0.4-0.3 0.4-0.7-0.2-0.8q-0.1 0-0.2-0.1c-0.6-0.1-1.5 0-1.9 0.3-0.5 0.3-0.4 0.6 0.2 0.8z"/>
		<path id="&lt;Path&gt;" class="s19" d="m299.4 205.3c-1.6-0.5-2.4 1.7-0.6 2.1 1.6 0.4 2.3-1.7 0.6-2.1z"/>
		<path id="&lt;Path&gt;" class="s19" d="m300.4 208.6c-0.5-0.1-0.2 1.6 0.4 1.7 0.4 0.2 0.1-1.5-0.4-1.7z"/>
		<path id="&lt;Path&gt;" class="s19" d="m295.2 207.4q0-0.1 0-0.3c0.1-0.5-2.2-1.7-2.2-1.3q0 0.1 0 0.2c-0.1 0.6 2.2 1.7 2.2 1.4z"/>
		<path id="&lt;Path&gt;" class="s19" d="m294.4 208.1q-0.1 0.1-0.2 0.2c-0.4 0.4 0.4 0.6 0.7 0.7 0.6 0 1.4-0.1 1.8-0.5q0.1-0.1 0.2-0.2c0.5-0.4-0.3-0.6-0.7-0.7-0.6 0-1.3 0.2-1.8 0.5z"/>
		<path id="&lt;Path&gt;" class="s19" d="m294.9 202.9c-0.7-0.2-0.2 2.2 0.5 2.4 0.7 0.1 0.2-2.2-0.5-2.4z"/>
		<path id="&lt;Path&gt;" class="s19" d="m297.4 202.4c-0.7-0.1-0.2 2.2 0.5 2.4 0.7 0.2 0.2-2.2-0.5-2.4z"/>
		<path id="&lt;Path&gt;" class="s19" d="m297.3 209.9q0 0.1 0.1 0.2c0.2 0.6 1-0.2 1.1-0.3 0.3-0.4 0.6-1 0.4-1.5q0-0.2-0.1-0.3c-0.2-0.5-1 0.3-1.1 0.4-0.3 0.4-0.6 1-0.4 1.5z"/>
		<path id="&lt;Path&gt;" class="s19" d="m300.8 204.9q0.1 0.1 0.2 0.2c0.1 0.1 1.6-1.7 1.1-2.2l-0.2-0.2c-0.1-0.1-1.6 1.7-1.1 2.2z"/>
		<path id="&lt;Path&gt;" class="s19" d="m299.9 204.2q0.1-0.1 0.1-0.2c0.3-0.4 0.4-1.2 0.2-1.7-0.3-0.5-0.6-0.5-0.9-0.1q-0.1 0.1-0.2 0.2c-0.3 0.5-0.3 1.2-0.1 1.7 0.2 0.5 0.6 0.6 0.9 0.1z"/>
		<path id="&lt;Path&gt;" class="s19" d="m301.5 205.9c0 0.4 1.8-0.1 1.8-0.6 0-0.4-1.8 0.1-1.8 0.6z"/>
		<path id="&lt;Path&gt;" class="s3" d="m248.5 238.1c12.6-0.1 26.9-3.1 33.4-15.1-4.1 13.6-20.8 17.8-33.4 15.1z"/>
		<path id="&lt;Path&gt;" class="s3" d="m148.9 285c0.6 0.5 1.1 0 1.8 0.2 1.5 0.3 2.5-0.6 4-0.7 0 0.5-0.1 1 0 1.6 0.1 0.5 0.5 1 1 1.1 0.2 0 0.5 0 0.7 0.1 0.2 0.2 0.3 0.5 0.4 0.7 0.2 0.7 1 1 1.7 1.1 0.7 0.1 1.5 0.2 2 0.6-1.2 0.6-2.7 0.2-4.1-0.2-3.5-1-8.9-1.5-10.2-5.6 1 0.1 1.9 0.5 2.7 1.1z"/>
		<path id="&lt;Path&gt;" class="s13" d="m148.9 285c0.6 0.5 1.1 0 1.8 0.2 1.5 0.3 2.5-0.6 4-0.7 0 0.5-0.1 1 0 1.6 0.1 0.5 0.5 1 1 1.1 0.2 0 0.5 0 0.7 0.1 0.2 0.2 0.3 0.5 0.4 0.7 0.2 0.7 1 1 1.7 1.1 0.7 0.1 1.5 0.2 2 0.6-1.2 0.6-2.7 0.2-4.1-0.2-3.5-1-8.9-1.5-10.2-5.6 1 0.1 1.9 0.5 2.7 1.1z"/>
		<path id="&lt;Path&gt;" class="s4" d="m190 264.5c0 0 5.6-16.2 42.9-24.5"/>
		<path id="&lt;Path&gt;" class="s3" d="m261.9 238.3c5.6 15.8 17.9 29.4 35.6 21.4l-0.5 0.9c-1.3-6.1-6.5-11-12-13.8-5.7-2.9-12.4-4-18.8-4.7 6.6 0 13.4 0.8 19.4 3.6 6.4 2.8 12 8.2 13.3 15.3l-0.7 0.3c-18.4 8.5-32.2-5.8-36.3-23z"/>
	</g>
</svg>